<?xml version="1.0" encoding="utf-8"?>
<!-- Generator: Adobe Illustrator 24.3.0, SVG Export Plug-In . SVG Version: 6.00 Build 0)  -->
<svg version="1.1" id="Layer_1" xmlns="http://www.w3.org/2000/svg" xmlns:xlink="http://www.w3.org/1999/xlink" x="0px" y="0px"
	 viewBox="0 0 240 240" style="enable-background:new 0 0 240 240;" xml:space="preserve">
<style type="text/css">
	.st0{fill:#020203;stroke:#000000;stroke-miterlimit:10;}
	.st1{fill:#F7F0F0;stroke:#FFFFFF;stroke-miterlimit:10;}
	.st2{fill:none;}
	.st3{fill:#FFFFFF;}
	.st4{font-family:'MyriadPro-Regular';}
	.st5{font-size:18px;}
</style>
<circle class="st0" cx="123.3" cy="117.3" r="96"/>
<rect x="122.5" y="28.1" class="st1" width="1.6" height="16.7"/>
<rect x="109.9" y="29.1" transform="matrix(0.9877 -0.1564 0.1564 0.9877 -4.4993 17.7782)" class="st1" width="1.6" height="16.7"/>
<rect x="97.6" y="32.1" transform="matrix(0.9511 -0.309 0.309 0.9511 -7.681 32.3745)" class="st1" width="1.6" height="16.7"/>
<rect x="85.8" y="36.9" transform="matrix(0.891 -0.454 0.454 0.891 -11.1179 44.2705)" class="st1" width="1.6" height="16.7"/>
<rect x="75" y="43.6" transform="matrix(0.809 -0.5878 0.5878 0.809 -16.0358 54.484)" class="st1" width="1.6" height="16.7"/>
<rect x="65.4" y="51.8" transform="matrix(0.7071 -0.7071 0.7071 0.7071 -23.1548 64.4144)" class="st1" width="1.6" height="16.7"/>
<rect x="57.1" y="61.4" transform="matrix(0.5878 -0.809 0.809 0.5878 -32.5897 75.6476)" class="st1" width="1.6" height="16.7"/>
<rect x="50.5" y="72.3" transform="matrix(0.454 -0.891 0.891 0.454 -43.8181 89.7374)" class="st1" width="1.6" height="16.7"/>
<rect x="45.7" y="84" transform="matrix(0.309 -0.9511 0.9511 0.309 -55.7223 107.988)" class="st1" width="1.6" height="16.7"/>
<rect x="42.7" y="96.3" transform="matrix(0.1564 -0.9877 0.9877 0.1564 -66.6988 131.2603)" class="st1" width="1.6" height="16.7"/>
<rect x="41.7" y="109" transform="matrix(9.443905e-10 -1 1 9.443905e-10 -74.8261 159.8227)" class="st1" width="1.6" height="16.7"/>
<rect x="42.7" y="121.6" transform="matrix(-0.1564 -0.9877 0.9877 -0.1564 -78.0738 193.2618)" class="st1" width="1.6" height="16.7"/>
<rect x="45.7" y="133.9" transform="matrix(-0.309 -0.9511 0.9511 -0.309 -74.5316 230.4641)" class="st1" width="1.6" height="16.7"/>
<rect x="50.5" y="145.7" transform="matrix(-0.454 -0.891 0.891 -0.454 -62.6355 269.6725)" class="st1" width="1.6" height="16.7"/>
<rect x="57.1" y="156.5" transform="matrix(-0.5878 -0.809 0.809 -0.5878 -41.3681 308.6111)" class="st1" width="1.6" height="16.7"/>
<rect x="65.4" y="166.1" transform="matrix(-0.7071 -0.7071 0.7071 -0.7071 -10.4117 344.6699)" class="st1" width="1.6" height="16.7"/>
<rect x="75" y="174.4" transform="matrix(-0.809 -0.5878 0.5878 -0.809 29.7613 375.1307)" class="st1" width="1.6" height="16.7"/>
<rect x="85.8" y="181" transform="matrix(-0.891 -0.454 0.454 -0.891 77.8717 397.4131)" class="st1" width="1.6" height="16.7"/>
<rect x="97.6" y="185.9" transform="matrix(-0.9511 -0.309 0.309 -0.9511 131.8938 409.3173)" class="st1" width="1.6" height="16.7"/>
<rect x="109.9" y="188.8" transform="matrix(-0.9877 -0.1564 0.1564 -0.9877 189.1868 409.2398)" class="st1" width="1.6" height="16.7"/>
<rect x="122.5" y="189.8" transform="matrix(-1 -9.876274e-10 9.876274e-10 -1 246.689 396.3411)" class="st1" width="1.6" height="16.7"/>
<rect x="159.2" y="181" transform="matrix(-0.891 0.454 -0.454 -0.891 388.6187 285.4186)" class="st1" width="1.6" height="16.7"/>
<rect x="170.1" y="174.4" transform="matrix(-0.809 0.5878 -0.5878 -0.809 416.5033 230.1305)" class="st1" width="1.6" height="16.7"/>
<rect x="179.7" y="166.1" transform="matrix(-0.7071 0.7071 -0.7071 -0.7071 431.5361 170.2345)" class="st1" width="1.6" height="16.7"/>
<rect x="188" y="156.5" transform="matrix(-0.5878 0.809 -0.809 -0.5878 433.0572 109.0355)" class="st1" width="1.6" height="16.7"/>
<rect x="194.6" y="145.7" transform="matrix(-0.454 0.891 -0.891 -0.454 421.3189 49.8711)" class="st1" width="1.6" height="16.7"/>
<rect x="199.4" y="133.9" transform="matrix(-0.309 0.9511 -0.9511 -0.309 397.4516 -4.151)" class="st1" width="1.6" height="16.7"/>
<rect x="202.4" y="121.6" transform="matrix(-0.1564 0.9877 -0.9877 -0.1564 363.3534 -50.39)" class="st1" width="1.6" height="16.7"/>
<rect x="203.4" y="109" transform="matrix(-1.033140e-09 1 -1 -1.033140e-09 321.515 -86.8662)" class="st1" width="1.6" height="16.7"/>
<rect x="202.4" y="96.3" transform="matrix(0.1564 0.9877 -0.9877 0.1564 274.7971 -112.3915)" class="st1" width="1.6" height="16.7"/>
<rect x="199.4" y="84" transform="matrix(0.309 0.9511 -0.9511 0.309 226.1802 -126.6271)" class="st1" width="1.6" height="16.7"/>
<rect x="194.6" y="72.3" transform="matrix(0.454 0.891 -0.891 0.454 178.5126 -130.0641)" class="st1" width="1.6" height="16.7"/>
<rect x="188" y="61.4" transform="matrix(0.5878 0.809 -0.809 0.5878 134.2785 -123.9279)" class="st1" width="1.6" height="16.7"/>
<rect x="179.7" y="51.8" transform="matrix(0.7071 0.7071 -0.7071 0.7071 95.4084 -110.0211)" class="st1" width="1.6" height="16.7"/>
<rect x="170.1" y="43.6" transform="matrix(0.809 0.5878 -0.5878 0.809 63.1492 -90.5162)" class="st1" width="1.6" height="16.7"/>
<rect x="159.2" y="36.9" transform="matrix(0.891 0.454 -0.454 0.891 38.0054 -67.7239)" class="st1" width="1.6" height="16.7"/>
<rect x="147.5" y="32.1" transform="matrix(0.9511 0.309 -0.309 0.9511 19.7548 -43.8566)" class="st1" width="1.6" height="16.7"/>
<rect x="135.2" y="29.1" transform="matrix(0.9877 0.1564 -0.1564 0.9877 7.5364 -20.8124)" class="st1" width="1.6" height="16.7"/>
<rect x="116" y="28.4" transform="matrix(0.9969 -7.845909e-02 7.845909e-02 0.9969 -2.3492 9.2727)" class="st1" width="1.6" height="12.3"/>
<rect x="109.6" y="29.1" transform="matrix(0.9877 -0.1564 0.1564 0.9877 -4.1633 17.6976)" class="st1" width="1.6" height="12.3"/>
<rect x="103.2" y="30.4" transform="matrix(0.9724 -0.2334 0.2334 0.9724 -5.6649 25.2788)" class="st1" width="1.6" height="12.3"/>
<rect x="96.9" y="32.2" transform="matrix(0.9511 -0.309 0.309 0.9511 -7.0671 32.0617)" class="st1" width="1.6" height="12.3"/>
<rect x="90.8" y="34.4" transform="matrix(0.9239 -0.3827 0.3827 0.9239 -8.5663 38.1301)" class="st1" width="1.6" height="12.3"/>
<rect x="84.8" y="37.2" transform="matrix(0.891 -0.454 0.454 0.891 -10.3361 43.6028)" class="st1" width="1.6" height="12.3"/>
<rect x="79.2" y="40.4" transform="matrix(0.8526 -0.5225 0.5225 0.8526 -12.5219 48.629)" class="st1" width="1.6" height="12.3"/>
<rect x="73.7" y="44" transform="matrix(0.809 -0.5878 0.5878 0.809 -15.2358 53.3829)" class="st1" width="1.6" height="12.3"/>
<rect x="68.6" y="48" transform="matrix(0.7604 -0.6494 0.6494 0.7604 -18.5532 58.0573)" class="st1" width="1.6" height="12.3"/>
<rect x="63.8" y="52.4" transform="matrix(0.7071 -0.7071 0.7071 0.7071 -22.5098 62.8572)" class="st1" width="1.6" height="12.3"/>
<rect x="59.4" y="57.2" transform="matrix(0.6494 -0.7604 0.7604 0.6494 -27.1001 67.993)" class="st1" width="1.6" height="12.3"/>
<rect x="55.4" y="62.4" transform="matrix(0.5878 -0.809 0.809 0.5878 -32.2769 73.6727)" class="st1" width="1.6" height="12.3"/>
<rect x="51.7" y="67.8" transform="matrix(0.5225 -0.8526 0.8526 0.5225 -37.9521 80.0953)" class="st1" width="1.6" height="12.3"/>
<rect x="48.5" y="73.5" transform="matrix(0.454 -0.891 0.891 0.454 -43.9986 87.4433)" class="st1" width="1.6" height="12.3"/>
<rect x="45.8" y="79.4" transform="matrix(0.3827 -0.9239 0.9239 0.3827 -50.2536 95.8765)" class="st1" width="1.6" height="12.3"/>
<rect x="43.6" y="85.5" transform="matrix(0.309 -0.9511 0.9511 0.309 -56.5223 105.5259)" class="st1" width="1.6" height="12.3"/>
<rect x="41.8" y="91.8" transform="matrix(0.2334 -0.9724 0.9724 0.2334 -62.583 116.4882)" class="st1" width="1.6" height="12.3"/>
<rect x="40.5" y="98.2" transform="matrix(0.1564 -0.9877 0.9877 0.1564 -68.1933 128.8215)" class="st1" width="1.6" height="12.3"/>
<rect x="39.8" y="104.6" transform="matrix(7.845910e-02 -0.9969 0.9969 7.845910e-02 -73.0964 142.5417)" class="st1" width="1.6" height="12.3"/>
<rect x="39.5" y="111.2" transform="matrix(8.340218e-10 -1 1 8.340218e-10 -77.0282 157.6206)" class="st1" width="1.6" height="12.3"/>
<rect x="39.8" y="117.7" transform="matrix(-7.845909e-02 -0.9969 0.9969 -7.845909e-02 -79.7247 173.9839)" class="st1" width="1.6" height="12.3"/>
<rect x="40.5" y="124.2" transform="matrix(-0.1564 -0.9877 0.9877 -0.1564 -80.9293 191.5119)" class="st1" width="1.6" height="12.3"/>
<rect x="41.8" y="130.6" transform="matrix(-0.2334 -0.9724 0.9724 -0.2334 -80.4009 210.0404)" class="st1" width="1.6" height="12.3"/>
<rect x="43.6" y="136.8" transform="matrix(-0.309 -0.9511 0.9511 -0.309 -77.9203 229.3631)" class="st1" width="1.6" height="12.3"/>
<rect x="45.8" y="142.9" transform="matrix(-0.3827 -0.9239 0.9239 -0.3827 -73.2979 249.2352)" class="st1" width="1.6" height="12.3"/>
<rect x="48.5" y="148.9" transform="matrix(-0.454 -0.891 0.891 -0.454 -66.3792 269.3779)" class="st1" width="1.6" height="12.3"/>
<rect x="51.7" y="154.6" transform="matrix(-0.5225 -0.8526 0.8526 -0.5225 -57.0506 289.4842)" class="st1" width="1.6" height="12.3"/>
<rect x="55.4" y="160" transform="matrix(-0.5878 -0.809 0.809 -0.5878 -45.244 309.225)" class="st1" width="1.6" height="12.3"/>
<rect x="59.4" y="165.1" transform="matrix(-0.6494 -0.7604 0.7604 -0.6494 -30.9401 328.2563)" class="st1" width="1.6" height="12.3"/>
<rect x="63.8" y="169.9" transform="matrix(-0.7071 -0.7071 0.7071 -0.7071 -14.171 346.2271)" class="st1" width="1.6" height="12.3"/>
<rect x="68.6" y="174.3" transform="matrix(-0.7604 -0.6494 0.6494 -0.7604 4.9788 362.7865)" class="st1" width="1.6" height="12.3"/>
<rect x="73.7" y="178.4" transform="matrix(-0.809 -0.5878 0.5878 -0.809 26.3725 377.5928)" class="st1" width="1.6" height="12.3"/>
<rect x="79.2" y="182" transform="matrix(-0.8526 -0.5225 0.5225 -0.8526 49.8219 390.3207)" class="st1" width="1.6" height="12.3"/>
<rect x="84.8" y="185.2" transform="matrix(-0.891 -0.454 0.454 -0.891 75.0904 400.6696)" class="st1" width="1.6" height="12.3"/>
<rect x="90.8" y="187.9" transform="matrix(-0.9239 -0.3827 0.3827 -0.9239 101.8966 408.3706)" class="st1" width="1.6" height="12.3"/>
<rect x="96.9" y="190.1" transform="matrix(-0.9511 -0.309 0.309 -0.9511 129.9189 413.1932)" class="st1" width="1.6" height="12.3"/>
<rect x="103.2" y="191.9" transform="matrix(-0.9724 -0.2334 0.2334 -0.9724 158.8017 414.9516)" class="st1" width="1.6" height="12.3"/>
<rect x="109.6" y="193.2" transform="matrix(-0.9877 -0.1564 0.1564 -0.9877 188.1618 413.5092)" class="st1" width="1.6" height="12.3"/>
<rect x="116" y="194" transform="matrix(-0.9969 -7.845910e-02 7.845910e-02 -0.9969 217.5961 408.7828)" class="st1" width="1.6" height="12.3"/>
<rect x="122.5" y="194.2" transform="matrix(-1 -8.795348e-10 8.795348e-10 -1 246.689 400.7455)" class="st1" width="1.6" height="12.3"/>
<rect x="160.2" y="185.2" transform="matrix(-0.891 0.454 -0.454 -0.891 391.4 288.6752)" class="st1" width="1.6" height="12.3"/>
<rect x="165.9" y="182" transform="matrix(-0.8526 0.5225 -0.5225 -0.8526 407.204 261.4261)" class="st1" width="1.6" height="12.3"/>
<rect x="171.4" y="178.4" transform="matrix(-0.809 0.5878 -0.5878 -0.809 419.892 232.5926)" class="st1" width="1.6" height="12.3"/>
<rect x="176.5" y="174.3" transform="matrix(-0.7604 0.6494 -0.6494 -0.7604 429.2939 202.5748)" class="st1" width="1.6" height="12.3"/>
<rect x="181.3" y="169.9" transform="matrix(-0.7071 0.7071 -0.7071 -0.7071 435.2954 171.7916)" class="st1" width="1.6" height="12.3"/>
<rect x="185.7" y="165.1" transform="matrix(-0.6494 0.7604 -0.7604 -0.6494 437.8408 140.6726)" class="st1" width="1.6" height="12.3"/>
<rect x="189.7" y="160" transform="matrix(-0.5878 0.809 -0.809 -0.5878 436.9331 109.6494)" class="st1" width="1.6" height="12.3"/>
<rect x="193.4" y="154.6" transform="matrix(-0.5225 0.8526 -0.8526 -0.5225 432.6342 79.1473)" class="st1" width="1.6" height="12.3"/>
<rect x="196.5" y="148.9" transform="matrix(-0.454 0.891 -0.891 -0.454 425.0626 49.5764)" class="st1" width="1.6" height="12.3"/>
<rect x="199.3" y="142.9" transform="matrix(-0.3827 0.9239 -0.9239 -0.3827 414.3907 21.3243)" class="st1" width="1.6" height="12.3"/>
<rect x="201.5" y="136.8" transform="matrix(-0.309 0.9511 -0.9511 -0.309 400.8404 -5.2521)" class="st1" width="1.6" height="12.3"/>
<rect x="203.3" y="130.6" transform="matrix(-0.2334 0.9724 -0.9724 -0.2334 384.6782 -29.8326)" class="st1" width="1.6" height="12.3"/>
<rect x="204.6" y="124.2" transform="matrix(-0.1564 0.9877 -0.9877 -0.1564 366.209 -52.1399)" class="st1" width="1.6" height="12.3"/>
<rect x="205.3" y="117.7" transform="matrix(-7.845910e-02 0.9969 -0.9969 -7.845910e-02 345.7686 -71.9446)" class="st1" width="1.6" height="12.3"/>
<rect x="205.6" y="111.2" transform="matrix(-9.193590e-10 1 -1 -9.193590e-10 323.7172 -89.0684)" class="st1" width="1.6" height="12.3"/>
<rect x="205.3" y="104.6" transform="matrix(7.845909e-02 0.9969 -0.9969 7.845909e-02 300.4304 -103.3867)" class="st1" width="1.6" height="12.3"/>
<rect x="204.6" y="98.2" transform="matrix(0.1564 0.9877 -0.9877 0.1564 276.2916 -114.8303)" class="st1" width="1.6" height="12.3"/>
<rect x="203.3" y="91.8" transform="matrix(0.2334 0.9724 -0.9724 0.2334 251.6835 -123.3847)" class="st1" width="1.6" height="12.3"/>
<rect x="201.5" y="85.5" transform="matrix(0.309 0.9511 -0.9511 0.309 226.9801 -129.0892)" class="st1" width="1.6" height="12.3"/>
<rect x="199.3" y="79.4" transform="matrix(0.3827 0.9239 -0.9239 0.3827 202.5388 -132.0344)" class="st1" width="1.6" height="12.3"/>
<rect x="196.5" y="73.5" transform="matrix(0.454 0.891 -0.891 0.454 178.6932 -132.3582)" class="st1" width="1.6" height="12.3"/>
<rect x="193.4" y="67.8" transform="matrix(0.5225 0.8526 -0.8526 0.5225 155.7464 -130.2417)" class="st1" width="1.6" height="12.3"/>
<rect x="189.7" y="62.4" transform="matrix(0.5878 0.809 -0.809 0.5878 133.9657 -125.9028)" class="st1" width="1.6" height="12.3"/>
<rect x="185.7" y="57.2" transform="matrix(0.6494 0.7604 -0.7604 0.6494 113.5774 -119.5908)" class="st1" width="1.6" height="12.3"/>
<rect x="181.3" y="52.4" transform="matrix(0.7071 0.7071 -0.7071 0.7071 94.7634 -111.5782)" class="st1" width="1.6" height="12.3"/>
<rect x="176.5" y="48" transform="matrix(0.7604 0.6494 -0.6494 0.7604 77.6584 -102.1544)" class="st1" width="1.6" height="12.3"/>
<rect x="171.4" y="44" transform="matrix(0.809 0.5878 -0.5878 0.809 62.3492 -91.6173)" class="st1" width="1.6" height="12.3"/>
<rect x="165.9" y="40.4" transform="matrix(0.8526 0.5225 -0.5225 0.8526 48.8739 -80.2656)" class="st1" width="1.6" height="12.3"/>
<rect x="160.2" y="37.2" transform="matrix(0.891 0.454 -0.454 0.891 37.2236 -68.3916)" class="st1" width="1.6" height="12.3"/>
<rect x="154.3" y="34.4" transform="matrix(0.9239 0.3827 -0.3827 0.9239 27.3443 -56.2737)" class="st1" width="1.6" height="12.3"/>
<rect x="148.2" y="32.2" transform="matrix(0.9511 0.309 -0.309 0.9511 19.1409 -44.1694)" class="st1" width="1.6" height="12.3"/>
<rect x="141.9" y="30.4" transform="matrix(0.9724 0.2334 -0.2334 0.9724 12.481 -32.3096)" class="st1" width="1.6" height="12.3"/>
<rect x="135.5" y="29.1" transform="matrix(0.9877 0.1564 -0.1564 0.9877 7.2004 -20.8931)" class="st1" width="1.6" height="12.3"/>
<rect x="129.1" y="28.4" transform="matrix(0.9969 7.845910e-02 -7.845910e-02 0.9969 3.1097 -10.0823)" class="st1" width="1.6" height="12.3"/>
<rect x="113.4" y="49.1" class="st2" width="21.4" height="26.4"/>
<text transform="matrix(1 0 0 1 113.4228 61.903)" class="st3 st4 st5">20</text>
<rect x="71.8" y="66.4" class="st2" width="21.4" height="26.4"/>
<text transform="matrix(1 0 0 1 71.8367 79.1875)" class="st3 st4 st5">15</text>
<rect x="53.9" y="110.6" class="st2" width="21.4" height="26.4"/>
<text transform="matrix(1 0 0 1 53.8995 123.4065)" class="st3 st4 st5">10</text>
<rect x="74.5" y="154" class="st2" width="21.4" height="26.4"/>
<text transform="matrix(1 0 0 1 74.5299 166.8075)" class="st3 st4 st5">5</text>
<rect x="117.9" y="171.3" class="st2" width="21.4" height="26.4"/>
<text transform="matrix(1 0 0 1 117.9113 184.0781)" class="st3 st4 st5">0</text>
<rect x="156" y="153.6" class="st2" width="21.4" height="26.4"/>
<text transform="matrix(1 0 0 1 156.0161 166.3738)" class="st3 st4 st5">35</text>
<rect x="171.3" y="110.4" class="st2" width="21.4" height="26.4"/>
<text transform="matrix(1 0 0 1 171.3475 123.1705)" class="st3 st4 st5">30</text>
<rect x="156" y="67.4" class="st2" width="21.4" height="26.4"/>
<text transform="matrix(1 0 0 1 156.0161 80.1872)" class="st3 st4 st5">25</text>
<rect x="98.7" y="75.6" class="st2" width="50.8" height="18.3"/>
<text transform="matrix(1 0 0 1 98.7419 88.33)" class="st3 st4 st5">at/min</text>
<rect x="102.4" y="142.8" class="st2" width="40.2" height="26.4"/>
<text transform="matrix(1 0 0 1 102.4269 155.5304)" class="st3 st4 st5">×100</text>
</svg>
