<?xml version="1.0" encoding="utf-8"?>
<!-- Generator: Adobe Illustrator 24.3.0, SVG Export Plug-In . SVG Version: 6.00 Build 0)  -->
<svg version="1.1" id="Layer_1" xmlns="http://www.w3.org/2000/svg" xmlns:xlink="http://www.w3.org/1999/xlink" x="0px" y="0px"
	 viewBox="0 0 240 240" style="enable-background:new 0 0 240 240;" xml:space="preserve">
<style type="text/css">
	.st0{fill:#010202;stroke:#000000;stroke-miterlimit:10;}
	.st1{fill:#FFFFFF;stroke:#FFFFFF;stroke-miterlimit:10;}
	.st2{fill:#FFFFFF;}
	.st3{font-family:'MyriadPro-Regular';}
	.st4{font-size:12px;}
	.st5{fill:#FFFEF9;}
	.st6{fill:none;}
</style>
<circle class="st0" cx="120.88" cy="120.29" r="96"/>
<rect x="120" y="26.33" class="st1" width="0.88" height="18.42"/>
<rect x="84.27" y="34.06" transform="matrix(0.9063 -0.4226 0.4226 0.9063 -10.3511 39.852)" class="st1" width="0.88" height="18.42"/>
<rect x="55.15" y="56.17" transform="matrix(0.6428 -0.766 0.766 0.6428 -30.2259 65.9338)" class="st1" width="0.88" height="18.42"/>
<rect x="38.1" y="88.51" transform="matrix(0.2588 -0.9659 0.9659 0.2588 -65.8263 109.6484)" class="st1" width="0.88" height="18.42"/>
<rect x="36.31" y="125.02" transform="matrix(-0.1736 -0.9848 0.9848 -0.1736 -89.0619 193.7356)" class="st1" width="0.88" height="18.42"/>
<rect x="50.13" y="158.87" transform="matrix(-0.5736 -0.8192 0.8192 -0.5736 -58.1159 305.9124)" class="st1" width="0.88" height="18.42"/>
<rect x="76.95" y="183.71" transform="matrix(-0.866 -0.5 0.5 -0.866 47.9547 398.6931)" class="st1" width="0.88" height="18.42"/>
<rect x="178.97" y="170.82" transform="matrix(-0.7071 0.7071 -0.7071 -0.7071 433.5711 180.4682)" class="st1" width="0.88" height="18.42"/>
<rect x="198.77" y="140.09" transform="matrix(-0.342 0.9397 -0.9397 -0.342 407.6417 13.1619)" class="st1" width="0.88" height="18.42"/>
<rect x="203.73" y="103.87" transform="matrix(0.0872 0.9962 -0.9962 0.0872 299.0239 -100.1752)" class="st1" width="0.88" height="18.42"/>
<rect x="192.92" y="68.94" transform="matrix(0.5 0.866 -0.866 0.5 164.3616 -128.3792)" class="st1" width="0.88" height="18.42"/>
<rect x="168.36" y="41.86" transform="matrix(0.8192 0.5736 -0.5736 0.8192 59.8194 -87.5847)" class="st1" width="0.88" height="18.42"/>
<rect x="134.66" y="27.69" transform="matrix(0.9848 0.1736 -0.1736 0.9848 8.4606 -22.8988)" class="st1" width="0.88" height="18.42"/>
<rect x="98.13" y="29.1" transform="matrix(0.9659 -0.2588 0.2588 0.9659 -6.5564 26.8158)" class="st1" width="0.88" height="18.42"/>
<rect x="65.61" y="45.81" transform="matrix(0.766 -0.6428 0.6428 0.766 -19.9143 55.3277)" class="st1" width="0.88" height="18.42"/>
<rect x="43.2" y="74.7" transform="matrix(0.4226 -0.9063 0.9063 0.4226 -50.8499 88.0012)" class="st1" width="0.88" height="18.42"/>
<rect x="35.11" y="110.35" transform="matrix(4.022880e-10 -1 1 4.022880e-10 -84.0175 155.1053)" class="st1" width="0.88" height="18.42"/>
<rect x="42.83" y="146.08" transform="matrix(-0.4226 -0.9063 0.9063 -0.4226 -79.1866 260.143)" class="st1" width="0.88" height="18.42"/>
<rect x="64.94" y="175.2" transform="matrix(-0.766 -0.6428 0.6428 -0.766 -3.0817 367.7088)" class="st1" width="0.88" height="18.42"/>
<rect x="167.64" y="180.22" transform="matrix(-0.8192 0.5736 -0.5736 -0.8192 414.423 248.2009)" class="st1" width="0.88" height="18.42"/>
<rect x="192.48" y="153.4" transform="matrix(-0.5 0.866 -0.866 -0.5 430.2054 76.8366)" class="st1" width="0.88" height="18.42"/>
<rect x="203.66" y="118.59" transform="matrix(-0.0872 0.9962 -0.9962 -0.0872 349.1962 -64.3838)" class="st1" width="0.88" height="18.42"/>
<rect x="199.07" y="82.32" transform="matrix(0.342 0.9397 -0.9397 0.342 217.2821 -127.2582)" class="st1" width="0.88" height="18.42"/>
<rect x="179.59" y="51.38" transform="matrix(0.7071 0.7071 -0.7071 0.7071 95.5735 -109.5536)" class="st1" width="0.88" height="18.42"/>
<rect x="148.86" y="31.58" transform="matrix(0.9397 0.342 -0.342 0.9397 22.9538 -48.6031)" class="st1" width="0.88" height="18.42"/>
<rect x="112.64" y="26.62" transform="matrix(0.9962 -0.0872 0.0872 0.9962 -2.6922 9.9916)" class="st1" width="0.88" height="18.42"/>
<rect x="77.71" y="37.43" transform="matrix(0.866 -0.5 0.5 0.866 -12.8494 45.3244)" class="st1" width="0.88" height="18.42"/>
<rect x="50.63" y="61.99" transform="matrix(0.5736 -0.8192 0.8192 0.5736 -36.5454 72.1942)" class="st1" width="0.88" height="18.42"/>
<rect x="36.46" y="95.69" transform="matrix(0.1736 -0.9848 0.9848 0.1736 -72.8138 123.0288)" class="st1" width="0.88" height="18.42"/>
<rect x="37.87" y="132.22" transform="matrix(-0.2588 -0.9659 0.9659 -0.2588 -88.3929 215.0441)" class="st1" width="0.88" height="18.42"/>
<rect x="54.58" y="164.74" transform="matrix(-0.6428 -0.766 0.766 -0.6428 -42.8668 327.9136)" class="st1" width="0.88" height="18.42"/>
<rect x="183.98" y="165.41" transform="matrix(-0.6428 0.766 -0.766 -0.6428 436.7243 145.5988)" class="st1" width="0.88" height="18.42"/>
<rect x="201.03" y="133.07" transform="matrix(-0.2588 0.9659 -0.9659 -0.2588 391.0421 -15.4922)" class="st1" width="0.88" height="18.42"/>
<rect x="202.81" y="96.56" transform="matrix(0.1736 0.9848 -0.9848 0.1736 272.1148 -112.7613)" class="st1" width="0.88" height="18.42"/>
<rect x="189" y="62.71" transform="matrix(0.5736 0.8192 -0.8192 0.5736 139.6903 -124.508)" class="st1" width="0.88" height="18.42"/>
<rect x="162.17" y="37.87" transform="matrix(0.866 0.5 -0.5 0.866 45.3244 -74.9967)" class="st1" width="0.88" height="18.42"/>
<rect x="127.36" y="26.69" transform="matrix(0.9962 0.0872 -0.0872 0.9962 3.6155 -11.0017)" class="st1" width="0.88" height="18.42"/>
<rect x="91.09" y="31.28" transform="matrix(0.9397 -0.342 0.342 0.9397 -8.3277 33.7456)" class="st1" width="0.88" height="18.42"/>
<rect x="60.15" y="50.76" transform="matrix(0.7071 -0.7071 0.7071 0.7071 -24.6589 60.409)" class="st1" width="0.88" height="18.42"/>
<rect x="40.35" y="81.49" transform="matrix(0.342 -0.9397 0.9397 0.342 -58.395 98.0076)" class="st1" width="0.88" height="18.42"/>
<rect x="35.39" y="117.71" transform="matrix(-0.0872 -0.9962 0.9962 -0.0872 -87.4914 173.6767)" class="st1" width="0.88" height="18.42"/>
<rect x="46.2" y="152.64" transform="matrix(-0.5 -0.866 0.866 -0.5 -70.2054 283.1634)" class="st1" width="0.88" height="18.42"/>
<rect x="70.76" y="179.72" transform="matrix(-0.8192 -0.5736 0.5736 -0.8192 21.1549 384.5318)" class="st1" width="0.88" height="18.42"/>
<rect x="173.51" y="175.77" transform="matrix(-0.766 0.6428 -0.6428 -0.766 426.1081 214.8675)" class="st1" width="0.88" height="18.42"/>
<rect x="195.92" y="146.88" transform="matrix(-0.4226 0.9063 -0.9063 -0.4226 420.8081 44.0961)" class="st1" width="0.88" height="18.42"/>
<rect x="204.02" y="111.23" transform="matrix(-8.543425e-10 1 -1 -8.543425e-10 324.8947 -84.0175)" class="st1" width="0.88" height="18.42"/>
<rect x="196.29" y="75.49" transform="matrix(0.4226 0.9063 -0.9063 0.4226 190.3561 -129.3897)" class="st1" width="0.88" height="18.42"/>
<rect x="174.18" y="46.37" transform="matrix(0.766 0.6428 -0.6428 0.766 76.5833 -99.2414)" class="st1" width="0.88" height="18.42"/>
<rect x="141.84" y="29.32" transform="matrix(0.9659 0.2588 -0.2588 0.9659 14.8218 -35.5124)" class="st1" width="0.88" height="18.42"/>
<rect x="105.33" y="27.54" transform="matrix(0.9848 -0.1736 0.1736 0.9848 -4.7749 18.9244)" class="st1" width="0.88" height="18.42"/>
<rect x="71.48" y="41.36" transform="matrix(0.8192 -0.5736 0.5736 0.8192 -15.9974 50.3948)" class="st1" width="0.88" height="18.42"/>
<rect x="46.64" y="68.18" transform="matrix(0.5 -0.866 0.866 0.5 -43.4845 79.4669)" class="st1" width="0.88" height="18.42"/>
<rect x="35.46" y="102.99" transform="matrix(0.0872 -0.9962 0.9962 0.0872 -79.001 138.19)" class="st1" width="0.88" height="18.42"/>
<rect x="40.05" y="139.26" transform="matrix(-0.342 -0.9397 0.9397 -0.342 -85.1849 237.3)" class="st1" width="0.88" height="18.42"/>
<rect x="59.53" y="170.2" transform="matrix(-0.7071 -0.7071 0.7071 -0.7071 -24.4858 348.6764)" class="st1" width="0.88" height="18.42"/>
<rect x="120.18" y="26.42" class="st1" width="1.4" height="24.23"/>
<rect x="154.73" y="34.08" transform="matrix(0.9063 0.4226 -0.4226 0.9063 34.0853 -61.3588)" class="st1" width="1.4" height="24.23"/>
<rect x="182.81" y="55.62" transform="matrix(0.6428 0.766 -0.766 0.6428 117.4417 -116.3761)" class="st1" width="1.4" height="24.23"/>
<rect x="199.15" y="87.01" transform="matrix(0.2588 0.9659 -0.9659 0.2588 243.8758 -119.5635)" class="st1" width="1.4" height="24.23"/>
<rect x="200.69" y="122.37" transform="matrix(-0.1736 0.9848 -0.9848 -0.1736 368.806 -40.4902)" class="st1" width="1.4" height="24.23"/>
<rect x="187.15" y="155.07" transform="matrix(-0.5736 0.8192 -0.8192 -0.5736 432.5412 109.2008)" class="st1" width="1.4" height="24.23"/>
<rect x="161.05" y="178.98" transform="matrix(-0.866 0.5 -0.5 -0.866 397.3854 275.707)" class="st1" width="1.4" height="24.23"/>
<rect x="84.63" y="33.08" transform="matrix(0.9063 -0.4226 0.4226 0.9063 -11.1059 40.2947)" class="st1" width="1.4" height="24.23"/>
<rect x="56.55" y="54.62" transform="matrix(0.6428 -0.766 0.766 0.6428 -30.6752 67.6952)" class="st1" width="1.4" height="24.23"/>
<rect x="40.21" y="86.01" transform="matrix(0.2588 -0.9659 0.9659 0.2588 -64.4673 112.2462)" class="st1" width="1.4" height="24.23"/>
<rect x="38.92" y="121.59" transform="matrix(-0.1736 -0.9848 0.9848 -0.1736 -85.427 195.7217)" class="st1" width="0.97" height="24.23"/>
<rect x="52.21" y="154.07" transform="matrix(-0.5736 -0.8192 0.8192 -0.5736 -52.8766 304.8417)" class="st1" width="1.4" height="24.23"/>
<rect x="77.3" y="178.98" transform="matrix(-0.866 -0.5 0.5 -0.866 50.0024 395.5842)" class="st1" width="1.4" height="24.23"/>
<rect x="178.97" y="170.82" transform="matrix(-0.7071 0.7071 -0.7071 -0.7071 433.5711 180.4682)" class="st1" width="0.88" height="18.42"/>
<rect x="198.77" y="140.09" transform="matrix(-0.342 0.9397 -0.9397 -0.342 407.6417 13.1619)" class="st1" width="0.88" height="18.42"/>
<rect x="203.73" y="103.87" transform="matrix(0.0872 0.9962 -0.9962 0.0872 299.0239 -100.1752)" class="st1" width="0.88" height="18.42"/>
<rect x="192.92" y="68.94" transform="matrix(0.5 0.866 -0.866 0.5 164.3616 -128.3792)" class="st1" width="0.88" height="18.42"/>
<rect x="168.36" y="41.86" transform="matrix(0.8192 0.5736 -0.5736 0.8192 59.8194 -87.5847)" class="st1" width="0.88" height="18.42"/>
<rect x="134.66" y="27.69" transform="matrix(0.9848 0.1736 -0.1736 0.9848 8.4606 -22.8988)" class="st1" width="0.88" height="18.42"/>
<rect x="98.13" y="29.1" transform="matrix(0.9659 -0.2588 0.2588 0.9659 -6.5564 26.8158)" class="st1" width="0.88" height="18.42"/>
<rect x="65.61" y="45.81" transform="matrix(0.766 -0.6428 0.6428 0.766 -19.9143 55.3277)" class="st1" width="0.88" height="18.42"/>
<rect x="43.2" y="74.7" transform="matrix(0.4226 -0.9063 0.9063 0.4226 -50.8499 88.0012)" class="st1" width="0.88" height="18.42"/>
<text transform="matrix(1 0 0 1 81.5261 67.7395)"><tspan x="0" y="0" class="st2 st3 st4">0,</tspan><tspan x="8.64" y="0" class="st5 st3 st4">8</tspan></text>
<text transform="matrix(1 0 0 1 139.1841 69.2153)"><tspan x="0" y="0" class="st2 st3 st4">1,</tspan><tspan x="8.64" y="0" class="st5 st3 st4">0</tspan></text>
<text transform="matrix(1 0 0 1 168.0823 108.3857)" class="st2 st3 st4">1,2</text>
<text transform="matrix(1 0 0 1 160.2137 161.8481)" class="st2 st3 st4">1,4</text>
<text transform="matrix(1 0 0 1 68.3428 160.256)"><tspan x="0" y="0" class="st2 st3 st4">0,</tspan><tspan x="8.64" y="0" class="st5 st3 st4">4</tspan></text>
<text transform="matrix(1 0 0 1 55.5843 108.3856)"><tspan x="0" y="0" class="st2 st3 st4">0,</tspan><tspan x="8.64" y="0" class="st5 st3 st4">6</tspan></text>
<rect x="100.53" y="175.06" class="st6" width="44.74" height="18.71"/>
<text transform="matrix(1 0 0 1 100.5322 183.5776)" class="st2 st3 st4">kPa=100</text>
</svg>
