<?xml version="1.0" encoding="utf-8"?>
<!-- Generator: Adobe Illustrator 24.3.0, SVG Export Plug-In . SVG Version: 6.00 Build 0)  -->
<svg version="1.1" id="Calque_1" xmlns="http://www.w3.org/2000/svg" xmlns:xlink="http://www.w3.org/1999/xlink" x="0px" y="0px"
	 viewBox="0 0 240 240" style="enable-background:new 0 0 240 240;" xml:space="preserve">
<style type="text/css">
	.st0{fill:#EAC330;}
	.st1{fill:#E62E27;}
	.st2{fill:none;stroke:#FFFFFF;stroke-miterlimit:10;}
	.st3{fill:none;stroke:#FFFFFF;stroke-width:0.25;stroke-miterlimit:10;}
	.st4{fill:#F8EA3D;}
	.st5{fill:#88BF52;}
	.st6{fill:#F3E843;}
	.st7{fill:none;}
	.st8{fill:#FFFFFF;}
	.st9{font-family:'MyriadPro-Regular';}
	.st10{font-size:18px;}
	.st11{font-family:'ArialRoundedMTBold';}
	.st12{font-size:25px;}
	.st13{font-size:11px;}
	.st14{fill:none;stroke:#FFFFFF;stroke-linecap:round;stroke-miterlimit:10;}
	.st15{fill:none;stroke:#FFFFFF;stroke-width:2;stroke-miterlimit:10;}
</style>
<circle cx="120" cy="120" r="96"/>
<circle class="st0" cx="119.99" cy="99.71" r="20.33"/>
<g>
	<circle class="st1" cx="55.26" cy="155.81" r="17.89"/>
	<g>
		<g>
			<line id="rect4298_2_" class="st2" x1="91.37" y1="122.13" x2="100.04" y2="114.04">
			</line>
			<polyline id="rect4298-7-6_2_" class="st2" points="100.82,197.41 100.7,197.54 91.37,188.84 			">
			</polyline>
			<path id="rect4455-3-2-2-1-6-8-6-1-8-9-2-7-9-5_4_" class="st2" d="M100.36,186.27"/>
			<path id="rect4455-3-2-2-1-6-8-6-1-8-9-2-7-9-5_3_" class="st2" d="M106.94,190.78"/>
		</g>
		<path class="st2" d="M100.82,197.41c2.12-2.12,4.08-4.4,5.84-6.82c2.07-2.82,3.89-5.83,5.43-9.01c1.33-2.74,2.46-5.61,3.34-8.58
			c0.88-2.9,1.54-5.91,1.95-8.99c0.35-2.57,0.53-5.2,0.53-7.86c0-3.57-0.32-7.08-0.94-10.47c-0.56-3.04-1.34-6-2.35-8.86
			c-0.86-2.47-1.89-4.87-3.07-7.17c-1.39-2.72-2.98-5.31-4.76-7.76c-2.04-2.81-4.32-5.42-6.81-7.81l-0.16,0.15"/>
	</g>
</g>
<g>
	<g>
		<g>
			<path id="rect4455-3-2-2-1-6-8-6-1-8-9-2-7-9-5_5_" class="st3" d="M100.97,186.15"/>
			<path id="rect4455-3-2-2-1-6-8-6-1-8-9-2-7-9-5_2_" class="st3" d="M107.55,190.66"/>
		</g>
		<path class="st4" d="M118.53,156.03c0,2.66-0.18,5.29-0.53,7.86c-0.42,3.08-1.07,6.09-1.95,8.99c-0.89,2.97-2.02,5.84-3.35,8.58
			c-1.53,3.18-3.35,6.19-5.43,9.01c-1.19,1.63-2.46,3.2-3.83,4.7l-2.16-2.02c0.72-0.85,1.4-1.73,2.05-2.62
			c2.07-2.82,3.89-5.83,5.42-9.01c1.34-2.74,2.47-5.61,3.35-8.58c0.88-2.9,1.53-5.91,1.95-8.99c0.35-2.57,0.53-5.2,0.53-7.86
			c0-1.32-0.04-2.62-0.13-3.92l3.91-0.67C118.47,152.99,118.53,154.5,118.53,156.03z"/>
		<path class="st5" d="M118.36,151.5l-3.91,0.67c-0.15-2.22-0.42-4.41-0.81-6.55c-0.55-3.05-1.34-6-2.34-8.86
			c-0.71-2.01-1.52-3.98-2.43-5.89l3.3-1.35c1.18,2.3,2.21,4.7,3.07,7.18c1.01,2.85,1.79,5.81,2.35,8.85
			C117.96,147.5,118.21,149.49,118.36,151.5z"/>
		<path class="st4" d="M112.17,129.52l-3.3,1.35c-0.21-0.44-0.42-0.86-0.64-1.29c-1.39-2.72-2.99-5.31-4.76-7.75
			c-0.87-1.2-1.78-2.36-2.73-3.48l2.18-2.03c1.61,1.72,3.11,3.54,4.5,5.44C109.2,124.21,110.79,126.8,112.17,129.52z"/>
	</g>
</g>
<g>
	<circle class="st0" cx="184.81" cy="155.81" r="17.89"/>
	<g>
		<g>
			<line id="rect4298_1_" class="st2" x1="140.03" y1="114.04" x2="148.7" y2="122.13">
			</line>
			<line id="rect4298-7_1_" class="st2" x1="135.3" y1="156.15" x2="122" y2="156.15">
			</line>
			<polyline id="rect4298-7-6_1_" class="st2" points="148.7,188.84 139.37,197.54 139.25,197.41 			">
			</polyline>
			<line id="rect4455-3-2-2-1-6-8-6_1_" class="st2" x1="138.96" y1="125.8" x2="133.26" y2="121.89">
			</line>
			<line id="rect4455-3-2-2-1-6-8-6-1_1_" class="st2" x1="135.03" y1="132.79" x2="128.51" y2="129.64">
			</line>
			<line id="rect4455-3-2-2-1-6-8-6-1-8_1_" class="st2" x1="125.43" y1="136.82" x2="132.57" y2="139.03">
			</line>
			<line id="rect4455-3-2-2-1-6-8-6-1-8-9_1_" class="st2" x1="122.79" y1="145.63" x2="130.68" y2="146.83">
			</line>
			<line id="rect4455-3-2-2-1-6-8-6-1-8-9-2_1_" class="st2" x1="122.59" y1="164.02" x2="130.48" y2="162.83">
			</line>
			<line id="rect4455-3-2-2-1-6-8-6-1-8-9-2-7_1_" class="st2" x1="124.55" y1="173.04" x2="132.17" y2="170.68">
			</line>
			<line id="rect4455-3-2-2-1-6-8-6-1-8-9-2-7-9_1_" class="st2" x1="127.84" y1="181.65" x2="135.02" y2="178.18">
			</line>
			<line id="rect4455-3-2-2-1-6-8-6-1-8-9-2-7-9-5_1_" class="st2" x1="139.71" y1="186.27" x2="133.13" y2="190.78">
			</line>
		</g>
		<path class="st2" d="M140.24,114.23l-0.16-0.15c-2.49,2.39-4.77,5-6.81,7.81c-1.77,2.44-3.37,5.04-4.76,7.76
			c-1.18,2.3-2.21,4.7-3.07,7.17c-1.01,2.86-1.79,5.82-2.35,8.86c-0.62,3.4-0.94,6.9-0.94,10.47c0,2.66,0.18,5.29,0.53,7.86
			c0.41,3.08,1.07,6.09,1.95,8.99c0.88,2.96,2.01,5.83,3.34,8.58c1.54,3.18,3.35,6.19,5.43,9.01c1.77,2.42,3.72,4.7,5.84,6.82"/>
	</g>
</g>
<g>
	<path class="st6" d="M135.98,189.47l-2.75,1.81c-0.11-0.14-0.22-0.28-0.32-0.42c-1.87-2.55-4.3-6.63-5.69-9.49
		c-1.2-2.48-2.22-5.07-3.02-7.75v-0.01l3.68-1.1c0.09,0.33,0.18,0.65,0.28,0.97c0.79,2.68,1.81,5.27,3.02,7.75
		C132.35,183.67,134.28,186.97,135.98,189.47z"/>
	<path class="st5" d="M127.88,172.51l-3.68,1.1c-0.79-2.62-1.38-5.33-1.76-8.11c-0.07-0.5-0.13-1-0.18-1.5l3.91-0.59
		c0.06,0.66,0.14,1.31,0.23,1.96C126.72,167.81,127.22,170.2,127.88,172.51z"/>
	<path class="st6" d="M126.17,163.41l-4.01,0.59c-0.11-1.04-0.27-2.11-0.31-3.17l3.93-0.24
		C125.81,161.53,126.08,162.48,126.17,163.41z"/>
</g>
<line class="st7" x1="120.52" y1="154.19" x2="136.42" y2="154.39"/>
<line class="st7" x1="135.97" y1="190.58" x2="133.22" y2="192.39"/>
<rect x="56.64" y="72.38" class="st7" width="15.1" height="26.43"/>
<text transform="matrix(1 0 0 1 56.6404 85.1586)" class="st8 st9 st10">0</text>
<rect x="86.52" y="47.77" class="st7" width="28.44" height="26.43"/>
<text transform="matrix(1 0 0 1 86.5244 60.5519)" class="st8 st9 st10">50</text>
<rect x="137" y="149.09" class="st7" width="14.22" height="26.43"/>
<text transform="matrix(1 0 0 1 137.0031 161.8646)" class="st8 st9 st10">5</text>
<rect x="147.14" y="123.6" class="st7" width="21.44" height="26.43"/>
<text transform="matrix(1 0 0 1 147.1384 136.3815)" class="st8 st9 st10">10</text>
<rect x="80.65" y="123.6" class="st7" width="24.26" height="26.43"/>
<text transform="matrix(1 0 0 1 80.6472 136.3815)" class="st8 st9 st10">0.5</text>
<rect x="103.17" y="90.85" class="st7" width="36.54" height="25.48"/>
<text transform="matrix(1 0 0 1 103.1732 109.0459)" class="st8 st11 st12">°C</text>
<rect x="148.7" y="174.82" class="st7" width="21.44" height="26.43"/>
<text transform="matrix(1 0 0 1 148.6973 187.6049)" class="st8 st9 st10">0</text>
<rect x="80.25" y="174.82" class="st7" width="21.44" height="26.43"/>
<text transform="matrix(1 0 0 1 80.2516 187.6049)" class="st8 st9 st10">0</text>
<rect x="124.13" y="48.78" class="st7" width="28.44" height="26.43"/>
<text transform="matrix(1 0 0 1 124.1327 61.5631)" class="st8 st9 st10">100</text>
<rect x="155.63" y="72.43" class="st7" width="28.44" height="26.43"/>
<text transform="matrix(1 0 0 1 155.6327 85.2097)" class="st8 st9 st10">150</text>
<g>
	<rect x="47.6" y="143.13" class="st7" width="36.54" height="43.14"/>
	<text transform="matrix(1 0 0 1 47.6047 151.1376)"><tspan x="0" y="0" class="st8 st11 st13">kq</tspan><tspan x="0" y="13" class="st8 st11 st13">cm²</tspan></text>
	<line class="st14" x1="44.49" y1="155.29" x2="68.02" y2="155.29"/>
</g>
<g>
	<rect x="177.09" y="143.13" class="st7" width="36.54" height="43.14"/>
	<text transform="matrix(1 0 0 1 177.091 151.1376)"><tspan x="0" y="0" class="st8 st11 st13">kq</tspan><tspan x="0" y="13" class="st8 st11 st13">cm²</tspan></text>
	<line class="st14" x1="173.98" y1="155.29" x2="197.5" y2="155.29"/>
</g>
<g>
	<g>
		
			<rect x="61.24" y="57.16" transform="matrix(0.673 -0.7396 0.7396 0.673 -24.2859 65.5252)" class="st8" width="1.45" height="6.14"/>
		
			<rect x="68.64" y="50.52" transform="matrix(0.7811 -0.6244 0.6244 0.7811 -18.2898 55.0039)" class="st8" width="1.33" height="6.13"/>
		
			<rect x="76.73" y="44.82" transform="matrix(0.8511 -0.525 0.525 0.8511 -13.616 47.7645)" class="st8" width="1.33" height="6.12"/>
		
			<rect x="85.46" y="40.15" transform="matrix(0.9085 -0.4179 0.4179 0.9085 -10.1763 39.9396)" class="st8" width="1.33" height="6.12"/>
		
			<rect x="94.26" y="36.51" transform="matrix(0.9525 -0.3045 0.3045 0.9525 -7.8409 31.0699)" class="st8" width="2.85" height="8.32"/>
		
			<rect x="104.29" y="34.13" transform="matrix(0.9824 -0.1867 0.1867 0.9824 -5.1003 20.2466)" class="st8" width="1.33" height="6.15"/>
		
			<rect x="114.1" y="32.88" transform="matrix(0.9978 -0.0661 0.0661 0.9978 -2.126 7.664)" class="st8" width="1.33" height="6.18"/>
		<rect x="124" y="32.82" transform="matrix(0.9985 0.0555 -0.0555 0.9985 2.1851 -6.861)" class="st8" width="1.33" height="6.2"/>
		
			<rect x="133.35" y="33.95" transform="matrix(0.9843 0.1762 -0.1762 0.9843 8.6225 -23.037)" class="st8" width="1.33" height="6.16"/>
		<polygon class="st8" points="143.36,45.53 140.71,44.66 143.5,35.84 146.12,36.65 		"/>
		
			<rect x="152.34" y="39.63" transform="matrix(0.9129 0.4082 -0.4082 0.9129 30.7786 -58.7296)" class="st8" width="1.33" height="6.26"/>
		
			<rect x="161.07" y="44.49" transform="matrix(0.8566 0.5159 -0.5159 0.8566 47.6825 -76.6402)" class="st8" width="1.33" height="5.96"/>
		
			<rect x="169.16" y="49.87" transform="matrix(0.7877 0.6161 -0.6161 0.7877 68.6666 -93.3871)" class="st8" width="1.33" height="6.12"/>
		
			<rect x="176.58" y="56.4" transform="matrix(0.7071 0.7071 -0.7071 0.7071 93.968 -107.9136)" class="st8" width="1.33" height="6.13"/>
		
			<rect x="182.26" y="63.73" transform="matrix(0.6282 0.7781 -0.7781 0.6282 120.476 -117.939)" class="st8" width="2.76" height="6.71"/>
		<path class="st15" d="M187.1,66.06c-0.17-0.23-0.36-0.47-0.54-0.7c-14.47-18.56-36.62-30.97-61.97-32.31
			c-28.57-1.51-54.55,11.4-70.9,32.35c-0.03,0.05-0.06,0.09-0.1,0.13l4.55,3.52"/>
	</g>
	<rect x="52.49" y="65.42" transform="matrix(0.783 0.622 -0.622 0.783 53.8806 -20.475)" class="st8" width="7.58" height="3.13"/>
</g>
</svg>
