<?xml version="1.0" encoding="utf-8"?>
<!-- Generator: Adobe Illustrator 24.3.0, SVG Export Plug-In . SVG Version: 6.00 Build 0)  -->
<svg version="1.1" id="Layer_1" xmlns="http://www.w3.org/2000/svg" xmlns:xlink="http://www.w3.org/1999/xlink" x="0px" y="0px"
	 viewBox="0 0 240 240" style="enable-background:new 0 0 240 240;" xml:space="preserve">
<style type="text/css">
	.st0{fill:#030304;stroke:#020203;stroke-miterlimit:10;}
	.st1{fill:#FFFFFF;stroke:#020203;stroke-miterlimit:10;}
	.st2{fill:#FFFFFF;stroke:#020203;stroke-width:1;stroke-miterlimit:10.0004;}
	.st3{fill:#FFFFFF;stroke:#020203;stroke-width:1;stroke-miterlimit:9.9999;}
	.st4{fill:#FFFFFF;stroke:#020203;stroke-width:1;stroke-miterlimit:9.9996;}
	.st5{fill:#FFFFFF;stroke:#020203;stroke-width:1;stroke-miterlimit:10.0001;}
	.st6{fill:#FFFFFF;stroke:#020203;stroke-width:1;stroke-miterlimit:10.0002;}
	.st7{fill:#020203;}
	.st8{font-family:'MyriadCAD';}
	.st9{font-size:10.8px;}
	.st10{fill:#FFFFFF;}
</style>
<circle class="st0" cx="119.54" cy="119.75" r="108"/>
<rect x="118.09" y="14.95" class="st1" width="2.89" height="16.51"/>
<rect x="88.26" y="19.68" transform="matrix(0.9511 -0.309 0.309 0.9511 -4.2427 29.0849)" class="st2" width="2.89" height="16.51"/>
<rect x="61.34" y="33.38" transform="matrix(0.809 -0.5878 0.5878 0.809 -12.4819 44.8595)" class="st3" width="2.89" height="16.51"/>
<rect x="39.98" y="54.76" transform="matrix(0.5878 -0.809 0.809 0.5878 -33.9005 59.4822)" class="st3" width="2.89" height="16.51"/>
<rect x="26.28" y="81.65" transform="matrix(0.309 -0.9511 0.9511 0.309 -66.3511 88.4893)" class="st2" width="2.89" height="16.51"/>
<rect x="14.73" y="118.31" class="st1" width="16.51" height="2.89"/>
<rect x="19.47" y="148.14" transform="matrix(0.9511 -0.309 0.309 0.9511 -44.8637 15.8857)" class="st2" width="16.51" height="2.89"/>
<rect x="33.17" y="175.06" transform="matrix(0.809 -0.5878 0.5878 0.809 -95.8393 58.06)" class="st3" width="16.51" height="2.89"/>
<rect x="54.54" y="196.42" transform="matrix(0.5878 -0.809 0.809 0.5878 -134.1949 132.3589)" class="st3" width="16.51" height="2.89"/>
<rect x="81.44" y="210.13" transform="matrix(0.309 -0.9511 0.9511 0.309 -139.2406 231.5001)" class="st2" width="16.51" height="2.89"/>
<rect x="118.1" y="208.05" class="st1" width="2.89" height="16.51"/>
<rect x="196.2" y="168.25" transform="matrix(0.5878 -0.809 0.809 0.5878 -61.3183 232.6496)" class="st3" width="2.89" height="16.51"/>
<rect x="184.2" y="181.86" transform="matrix(0.729 -0.6845 0.6845 0.729 -79.8275 178.5932)" class="st3" width="2.89" height="16.51"/>
<rect x="169.84" y="193.03" transform="matrix(0.8443 -0.5358 0.5358 0.8443 -81.1846 123.1121)" class="st4" width="2.89" height="16.51"/>
<rect x="153.64" y="201.27" transform="matrix(0.9298 -0.3681 0.3681 0.9298 -66.2343 71.796)" class="st5" width="2.89" height="16.51"/>
<rect x="136.17" y="206.34" transform="matrix(0.9823 -0.1874 0.1874 0.9823 -37.7769 29.5911)" class="st6" width="2.89" height="16.51"/>
<rect x="209.92" y="141.35" transform="matrix(0.309 -0.9511 0.9511 0.309 3.7687 304.3975)" class="st2" width="2.89" height="16.51"/>
<rect x="207.84" y="118.31" class="st1" width="16.51" height="2.89"/>
<rect x="203.09" y="88.48" transform="matrix(0.9511 -0.309 0.309 0.9511 -17.4437 69.7047)" class="st2" width="16.51" height="2.89"/>
<rect x="189.41" y="61.56" transform="matrix(0.809 -0.5878 0.5878 0.809 0.7202 128.2188)" class="st3" width="16.51" height="2.89"/>
<rect x="118.09" y="14.95" class="st1" width="2.89" height="26.69"/>
<rect x="14.73" y="118.31" class="st1" width="26.69" height="2.89"/>
<rect x="118.1" y="197.87" class="st1" width="2.89" height="26.69"/>
<rect x="197.65" y="118.31" class="st1" width="26.69" height="2.89"/>
<rect x="205.07" y="134.69" transform="matrix(0.309 -0.9511 0.9511 0.309 1.9178 298.7056)" class="st2" width="2.89" height="26.69"/>
<rect x="192.09" y="160.16" transform="matrix(0.5878 -0.809 0.809 0.5878 -60.5936 228.0863)" class="st3" width="2.89" height="26.69"/>
<rect x="193.16" y="90.06" transform="matrix(0.9511 -0.309 0.309 0.9511 -18.1674 68.285)" class="st2" width="26.69" height="2.89"/>
<rect x="180.19" y="64.55" transform="matrix(0.809 -0.5878 0.5878 0.809 -1.8273 126.3664)" class="st3" width="26.69" height="2.89"/>
<rect x="129.38" y="23.47" transform="matrix(0.1874 -0.9823 0.9823 0.1874 87.3635 155.4441)" class="st6" width="16.51" height="2.89"/>
<rect x="146.84" y="28.53" transform="matrix(0.3681 -0.9298 0.9298 0.3681 70.1321 163.1472)" class="st5" width="16.51" height="2.89"/>
<rect x="163.02" y="36.78" transform="matrix(0.5358 -0.8443 0.8443 0.5358 47.2286 162.351)" class="st4" width="16.51" height="2.89"/>
<rect x="177.4" y="47.91" transform="matrix(0.6845 -0.729 0.729 0.6845 22.5908 150.912)" class="st3" width="16.51" height="2.89"/>
<text transform="matrix(1 0 0 1 116.2646 50.4429)" class="st7 st8 st9">5</text>
<text transform="matrix(1 0 0 1 116.7182 53.771)" class="st10 st8 st9">5</text>
<text transform="matrix(1 0 0 1 117.1718 192.3423)" class="st10 st8 st9">5</text>
<text transform="matrix(1 0 0 1 45.6152 122.9106)" class="st10 st8 st9">0</text>
<text transform="matrix(1 0 0 1 185.6327 123.0288)" class="st10 st8 st9">30</text>
<text transform="matrix(1 0 0 1 168.5312 164.5434)" class="st10 st8 st9">10</text>
<text transform="matrix(1 0 0 1 171.2724 80.3447)" class="st10 st8 st9">10</text>
</svg>
