<?xml version="1.0" encoding="utf-8"?>
<!-- Generator: Adobe Illustrator 24.3.0, SVG Export Plug-In . SVG Version: 6.00 Build 0)  -->
<svg version="1.1" id="Layer_1" xmlns="http://www.w3.org/2000/svg" xmlns:xlink="http://www.w3.org/1999/xlink" x="0px" y="0px"
	 viewBox="0 0 500 500" style="enable-background:new 0 0 500 500;" xml:space="preserve">
<style type="text/css">
	.st0{fill:#010202;stroke:#000000;stroke-miterlimit:10;}
	.st1{fill:#FFFFFF;stroke:#000000;stroke-miterlimit:10;}
	.st2{font-family:'MyriadPro-Regular';}
	.st3{font-size:12px;}
	.st4{fill:#FFFFFF;}
</style>
<circle class="st0" cx="250" cy="250" r="120"/>
<rect x="248.39" y="133.55" class="st1" width="3.21" height="18.34"/>
<rect x="215.24" y="138.8" transform="matrix(0.9511 -0.309 0.309 0.9511 -35.112 74.2521)" class="st1" width="3.21" height="18.34"/>
<rect x="185.34" y="154.04" transform="matrix(0.809 -0.5878 0.5878 0.809 -60.2287 141.0519)" class="st1" width="3.21" height="18.34"/>
<rect x="161.6" y="177.77" transform="matrix(0.5878 -0.809 0.809 0.5878 -83.9625 209.0988)" class="st1" width="3.21" height="18.34"/>
<rect x="146.37" y="207.68" transform="matrix(0.309 -0.9511 0.9511 0.309 -103.9902 290.5669)" class="st1" width="3.21" height="18.34"/>
<rect x="141.11" y="240.83" transform="matrix(4.419760e-11 -1 1 4.419760e-11 -107.2803 392.7198)" class="st1" width="3.21" height="18.34"/>
<rect x="146.37" y="273.98" transform="matrix(-0.309 -0.9511 0.9511 -0.309 -75.5972 511.3783)" class="st1" width="3.21" height="18.34"/>
<rect x="161.6" y="303.89" transform="matrix(-0.5878 -0.809 0.809 -0.5878 5.8709 629.1069)" class="st1" width="3.21" height="18.34"/>
<rect x="185.34" y="327.62" transform="matrix(-0.809 -0.5878 0.5878 -0.809 140.2206 719.1436)" class="st1" width="3.21" height="18.34"/>
<rect x="215.24" y="342.86" transform="matrix(-0.9511 -0.309 0.309 -0.9511 314.3007 753.8395)" class="st1" width="3.21" height="18.34"/>
<rect x="248.39" y="348.11" transform="matrix(-1 -8.839431e-11 8.839431e-11 -1 500 714.5605)" class="st1" width="3.21" height="18.34"/>
<rect x="335.19" y="303.89" transform="matrix(-0.5878 0.809 -0.809 -0.5878 788.0217 224.5984)" class="st1" width="3.21" height="18.34"/>
<rect x="321.83" y="319.03" transform="matrix(-0.729 0.6845 -0.6845 -0.729 783.8859 346.0455)" class="st1" width="3.21" height="18.34"/>
<rect x="305.88" y="331.41" transform="matrix(-0.8443 0.5358 -0.5358 -0.8443 749.5924 463.3827)" class="st1" width="3.21" height="18.34"/>
<rect x="287.89" y="340.57" transform="matrix(-0.9298 0.3681 -0.3681 -0.9298 687.4061 568.3636)" class="st1" width="3.21" height="18.34"/>
<rect x="268.5" y="346.21" transform="matrix(-0.9823 0.1874 -0.1874 -0.9823 602.012 653.8531)" class="st1" width="3.21" height="18.34"/>
<rect x="350.42" y="273.98" transform="matrix(-0.309 0.9511 -0.9511 -0.309 730.1057 35.85)" class="st1" width="3.21" height="18.34"/>
<rect x="355.68" y="240.83" transform="matrix(-1.325910e-10 1 -1 -1.325910e-10 607.2803 -107.2803)" class="st1" width="3.21" height="18.34"/>
<rect x="350.42" y="207.68" transform="matrix(0.309 0.9511 -0.9511 0.309 449.4817 -184.9613)" class="st1" width="3.21" height="18.34"/>
<rect x="335.19" y="177.77" transform="matrix(0.5878 0.809 -0.809 0.5878 290.0699 -195.4097)" class="st1" width="3.21" height="18.34"/>
<rect x="248.39" y="133.55" class="st1" width="3.21" height="29.66"/>
<rect x="146.77" y="235.17" transform="matrix(3.323280e-10 -1 1 3.323280e-10 -101.6219 398.3781)" class="st1" width="3.21" height="29.66"/>
<rect x="248.39" y="336.79" transform="matrix(-1 -3.773756e-10 3.773756e-10 -1 500 703.2438)" class="st1" width="3.21" height="29.66"/>
<rect x="350.02" y="235.17" transform="matrix(-4.227056e-10 1 -1 -4.227056e-10 601.6219 -101.6219)" class="st1" width="3.21" height="29.66"/>
<rect x="345.04" y="266.57" transform="matrix(-0.309 0.9511 -0.9511 -0.309 721.3984 38.6792)" class="st1" width="3.21" height="29.66"/>
<rect x="330.61" y="294.9" transform="matrix(-0.5878 0.809 -0.809 -0.5878 778.0626 223.021)" class="st1" width="3.21" height="29.66"/>
<rect x="345.04" y="203.77" transform="matrix(0.309 0.9511 -0.9511 0.309 447.4262 -178.6351)" class="st1" width="3.21" height="29.66"/>
<rect x="330.61" y="175.44" transform="matrix(0.5878 0.809 -0.809 0.5878 290.8736 -190.3353)" class="st1" width="3.21" height="29.66"/>
<rect x="268.5" y="135.45" transform="matrix(0.9823 0.1874 -0.1874 0.9823 31.8833 -48.0505)" class="st1" width="3.21" height="18.34"/>
<rect x="287.89" y="141.08" transform="matrix(0.9298 0.3681 -0.3681 0.9298 75.6411 -96.018)" class="st1" width="3.21" height="18.34"/>
<rect x="305.88" y="150.25" transform="matrix(0.8443 0.5358 -0.5358 0.8443 133.2883 -139.9407)" class="st1" width="3.21" height="18.34"/>
<rect x="321.83" y="162.62" transform="matrix(0.729 0.6845 -0.6845 0.729 205.2645 -174.8467)" class="st1" width="3.21" height="18.34"/>
<text transform="matrix(1 0 0 1 246.3633 172.9873)" class="st2 st3">5</text>
<text transform="matrix(1 0 0 1 246.8672 176.6853)" class="st4 st2 st3">5</text>
<text transform="matrix(1 0 0 1 247.371 330.6538)" class="st4 st2 st3">5</text>
<text transform="matrix(1 0 0 1 167.8636 253.5069)" class="st4 st2 st3">0</text>
<text transform="matrix(1 0 0 1 323.4387 253.6386)" class="st4 st2 st3">30</text>
<text transform="matrix(1 0 0 1 304.4371 299.7657)" class="st4 st2 st3">10</text>
<text transform="matrix(1 0 0 1 307.4832 206.2116)" class="st4 st2 st3">10</text>
</svg>
