<?xml version="1.0" encoding="utf-8"?>
<!-- Generator: Adobe Illustrator 24.3.0, SVG Export Plug-In . SVG Version: 6.00 Build 0)  -->
<svg version="1.1" id="Layer_1" xmlns="http://www.w3.org/2000/svg" xmlns:xlink="http://www.w3.org/1999/xlink" x="0px" y="0px"
	 viewBox="0 0 240 240" style="enable-background:new 0 0 240 240;" xml:space="preserve">
<style type="text/css">
	.st0{fill:#010202;stroke:#000000;stroke-miterlimit:10;}
	.st1{fill:#FFFFFF;stroke:#000000;stroke-miterlimit:10;}
	.st2{font-family:'MyriadPro-Regular';}
	.st3{font-size:12px;}
	.st4{fill:#FFFFFF;}
</style>
<circle class="st0" cx="120.26" cy="119.92" r="120"/>
<rect x="118.66" y="3.47" class="st1" width="3.21" height="18.34"/>
<rect x="85.5" y="8.72" transform="matrix(0.9511 -0.309 0.309 0.9511 -1.266 27.7941)" class="st1" width="3.21" height="18.34"/>
<rect x="55.6" y="23.96" transform="matrix(0.809 -0.5878 0.5878 0.809 -8.5494 39.9507)" class="st1" width="3.21" height="18.34"/>
<rect x="31.86" y="47.69" transform="matrix(0.5878 -0.809 0.809 0.5878 -32.2085 50.518)" class="st1" width="3.21" height="18.34"/>
<rect x="16.63" y="77.6" transform="matrix(0.309 -0.9511 0.9511 0.309 -69.9272 77.2967)" class="st1" width="3.21" height="18.34"/>
<rect x="11.38" y="110.75" transform="matrix(4.419760e-11 -1 1 4.419760e-11 -106.9425 132.9037)" class="st1" width="3.21" height="18.34"/>
<rect x="16.63" y="143.9" transform="matrix(-0.309 -0.9511 0.9511 -0.309 -121.7174 217.7161)" class="st1" width="3.21" height="18.34"/>
<rect x="31.86" y="173.81" transform="matrix(-0.5878 -0.809 0.809 -0.5878 -94.8925 317.6115)" class="st1" width="3.21" height="18.34"/>
<rect x="55.6" y="197.54" transform="matrix(-0.809 -0.5878 0.5878 -0.809 -18.0224 407.5734)" class="st1" width="3.21" height="18.34"/>
<rect x="85.5" y="212.78" transform="matrix(-0.9511 -0.309 0.309 -0.9511 101.3683 459.9605)" class="st1" width="3.21" height="18.34"/>
<rect x="118.66" y="218.03" transform="matrix(-1 -8.839431e-11 8.839431e-11 -1 240.5217 454.4067)" class="st1" width="3.21" height="18.34"/>
<rect x="205.45" y="173.81" transform="matrix(-0.5878 0.809 -0.809 -0.5878 476.7894 123.0253)" class="st1" width="3.21" height="18.34"/>
<rect x="192.09" y="188.96" transform="matrix(-0.729 0.6845 -0.6845 -0.729 470.5272 209.9591)" class="st1" width="3.21" height="18.34"/>
<rect x="176.14" y="201.33" transform="matrix(-0.8443 0.5358 -0.5358 -0.8443 440.6122 292.9959)" class="st1" width="3.21" height="18.34"/>
<rect x="158.15" y="210.5" transform="matrix(-0.9298 0.3681 -0.3681 -0.9298 389.1541 365.1043)" class="st1" width="3.21" height="18.34"/>
<rect x="138.76" y="216.13" transform="matrix(-0.9823 0.1874 -0.1874 -0.9823 320.4577 420.314)" class="st1" width="3.21" height="18.34"/>
<rect x="220.69" y="143.9" transform="matrix(-0.309 0.9511 -0.9511 -0.309 436.5645 -11.0337)" class="st1" width="3.21" height="18.34"/>
<rect x="225.94" y="110.75" transform="matrix(-1.325910e-10 1 -1 -1.325910e-10 347.4642 -107.618)" class="st1" width="3.21" height="18.34"/>
<rect x="220.69" y="77.6" transform="matrix(0.309 0.9511 -0.9511 0.309 236.1237 -151.453)" class="st1" width="3.21" height="18.34"/>
<rect x="205.45" y="47.69" transform="matrix(0.5878 0.809 -0.809 0.5878 131.3551 -144.0682)" class="st1" width="3.21" height="18.34"/>
<rect x="118.66" y="3.47" class="st1" width="3.21" height="29.66"/>
<rect x="17.03" y="105.09" transform="matrix(3.323280e-10 -1 1 3.323280e-10 -101.2841 138.5621)" class="st1" width="3.21" height="29.66"/>
<rect x="118.66" y="206.71" transform="matrix(-1 -3.773756e-10 3.773756e-10 -1 240.5217 443.0899)" class="st1" width="3.21" height="29.66"/>
<rect x="220.28" y="105.09" transform="matrix(-4.227056e-10 1 -1 -4.227056e-10 341.8058 -101.9597)" class="st1" width="3.21" height="29.66"/>
<rect x="215.3" y="136.5" transform="matrix(-0.309 0.9511 -0.9511 -0.309 427.8571 -8.2045)" class="st1" width="3.21" height="29.66"/>
<rect x="200.87" y="164.82" transform="matrix(-0.5878 0.809 -0.809 -0.5878 466.8302 121.448)" class="st1" width="3.21" height="29.66"/>
<rect x="215.3" y="73.69" transform="matrix(0.309 0.9511 -0.9511 0.309 234.0681 -145.1268)" class="st1" width="3.21" height="29.66"/>
<rect x="200.87" y="45.36" transform="matrix(0.5878 0.809 -0.809 0.5878 132.1588 -138.9938)" class="st1" width="3.21" height="29.66"/>
<rect x="138.76" y="5.37" transform="matrix(0.9823 0.1874 -0.1874 0.9823 5.2113 -26.0438)" class="st1" width="3.21" height="18.34"/>
<rect x="158.15" y="11" transform="matrix(0.9298 0.3681 -0.3681 0.9298 18.6459 -57.3923)" class="st1" width="3.21" height="18.34"/>
<rect x="176.14" y="20.17" transform="matrix(0.8443 0.5358 -0.5358 0.8443 43.3928 -90.6723)" class="st1" width="3.21" height="18.34"/>
<rect x="192.09" y="32.55" transform="matrix(0.729 0.6845 -0.6845 0.729 81.0573 -121.2891)" class="st1" width="3.21" height="18.34"/>
<text transform="matrix(1 0 0 1 116.6242 42.9104)" class="st2 st3">5</text>
<text transform="matrix(1 0 0 1 117.1281 46.6084)" class="st4 st2 st3">5</text>
<text transform="matrix(1 0 0 1 117.6319 200.5769)" class="st4 st2 st3">5</text>
<text transform="matrix(1 0 0 1 38.1244 123.43)" class="st4 st2 st3">0</text>
<text transform="matrix(1 0 0 1 193.6996 123.5617)" class="st4 st2 st3">30</text>
<text transform="matrix(1 0 0 1 174.698 169.6888)" class="st4 st2 st3">10</text>
<text transform="matrix(1 0 0 1 177.7441 76.1347)" class="st4 st2 st3">10</text>
</svg>
