<?xml version="1.0" encoding="utf-8"?>
<!-- Generator: Adobe Illustrator 24.3.0, SVG Export Plug-In . SVG Version: 6.00 Build 0)  -->
<svg version="1.1" id="Layer_1" xmlns="http://www.w3.org/2000/svg" xmlns:xlink="http://www.w3.org/1999/xlink" x="0px" y="0px"
	 viewBox="0 0 240 240" style="enable-background:new 0 0 240 240;" xml:space="preserve">
<style type="text/css">
	.st0{fill:#010202;stroke:#020203;stroke-miterlimit:10;}
	.st1{fill:#FFFFFF;stroke:#020203;stroke-miterlimit:10;}
	.st2{fill:#FFFFFF;stroke:#FFFFFF;stroke-width:1;stroke-miterlimit:10.0008;}
	.st3{fill:#FFFFFF;stroke:#FFFFFF;stroke-width:1;stroke-miterlimit:9.9998;}
	.st4{fill:#FFFFFF;stroke:#020203;stroke-width:1;stroke-miterlimit:9.9998;}
	.st5{fill:#FFFFFF;stroke:#F4F4F4;stroke-width:1;stroke-miterlimit:9.9998;}
	.st6{fill:#FFFFFF;stroke:#FAFAFA;stroke-width:1;stroke-miterlimit:9.9992;}
	.st7{fill:#FFFFFF;stroke:#FDFDFD;stroke-width:1;stroke-miterlimit:10.0002;}
	.st8{fill:#FFFFFF;stroke:#F2F4F4;stroke-width:1;stroke-miterlimit:10.0004;}
	.st9{fill:#FFFFFF;stroke:#020203;stroke-width:1;stroke-miterlimit:10.0008;}
	.st10{fill:#FFFFFF;stroke:#FFFFFF;stroke-miterlimit:10;}
	.st11{fill:#FFFFFF;stroke:#FDFDFD;stroke-miterlimit:10;}
	.st12{fill:#FFFFFF;stroke:#F8F7F7;stroke-width:1;stroke-miterlimit:9.9998;}
	.st13{fill:#FFFFFF;stroke:#FFFFFF;stroke-width:1;stroke-miterlimit:10.0004;}
	.st14{fill:#FFFFFF;stroke:#FFFFFF;stroke-width:1;stroke-miterlimit:10.0002;}
	.st15{fill:#FFFFFF;stroke:#FFFFFF;stroke-width:1;stroke-miterlimit:9.9992;}
	.st16{fill:none;}
	.st17{fill:#FFFFFF;}
	.st18{font-family:'MyriadPro-Regular';}
	.st19{font-size:18px;}
	.st20{font-size:9px;}
</style>
<circle class="st0" cx="122.6" cy="120" r="96"/>
<rect x="121.3" y="26.8" class="st1" width="2.6" height="14.7"/>
<rect x="94.8" y="31" transform="matrix(0.9511 -0.309 0.309 0.9511 -7.1577 31.5717)" class="st2" width="2.6" height="14.7"/>
<rect x="70.9" y="43.2" transform="matrix(0.809 -0.5878 0.5878 0.809 -15.9385 52.0772)" class="st3" width="2.6" height="14.7"/>
<rect x="51.9" y="62.2" transform="matrix(0.5878 -0.809 0.809 0.5878 -34.3536 71.6849)" class="st3" width="2.6" height="14.7"/>
<rect x="39.7" y="86.1" transform="matrix(0.309 -0.9511 0.9511 0.309 -60.5633 103.5743)" class="st2" width="2.6" height="14.7"/>
<rect x="29.5" y="118.7" class="st1" width="14.7" height="2.6"/>
<rect x="33.7" y="145.2" transform="matrix(0.9511 -0.309 0.309 0.9511 -43.2668 19.8376)" class="st2" width="14.7" height="2.6"/>
<rect x="45.8" y="169.2" transform="matrix(0.809 -0.5878 0.5878 0.809 -90.0313 63.8095)" class="st3" width="14.7" height="2.6"/>
<rect x="64.8" y="188.2" transform="matrix(0.5878 -0.809 0.809 0.5878 -123.509 136.4667)" class="st3" width="14.7" height="2.6"/>
<rect x="88.8" y="200.3" transform="matrix(0.309 -0.9511 0.9511 0.309 -125.3552 230.7036)" class="st2" width="14.7" height="2.6"/>
<rect x="121.3" y="198.5" class="st1" width="2.6" height="14.7"/>
<rect x="190.8" y="163.1" transform="matrix(0.5878 -0.809 0.809 0.5878 -58.7231 225.6116)" class="st4" width="2.6" height="14.7"/>
<rect x="180.1" y="175.2" transform="matrix(0.729 -0.6845 0.6845 0.729 -75.8058 173.6143)" class="st5" width="2.6" height="14.7"/>
<rect x="167.3" y="185.1" transform="matrix(0.8443 -0.5358 0.5358 0.8443 -76.8772 120.3016)" class="st6" width="2.6" height="14.7"/>
<rect x="152.9" y="192.5" transform="matrix(0.9298 -0.3681 0.3681 0.9298 -62.7136 70.7898)" class="st7" width="2.6" height="14.7"/>
<rect x="137.4" y="197" transform="matrix(0.9823 -0.1874 0.1874 0.9823 -35.8296 29.6091)" class="st8" width="2.6" height="14.7"/>
<rect x="203" y="139.2" transform="matrix(0.309 -0.9511 0.9511 0.309 1.7776 295.4954)" class="st9" width="2.6" height="14.7"/>
<rect x="201.1" y="118.7" class="st1" width="14.7" height="2.6"/>
<rect x="196.9" y="92.2" transform="matrix(0.9511 -0.309 0.309 0.9511 -18.8929 67.6774)" class="st9" width="14.7" height="2.6"/>
<rect x="184.7" y="68.3" transform="matrix(0.809 -0.5878 0.5878 0.809 -4.2019 126.1748)" class="st4" width="14.7" height="2.6"/>
<rect x="121.3" y="26.8" class="st10" width="2.6" height="23.7"/>
<rect x="29.5" y="118.7" class="st10" width="23.7" height="2.6"/>
<rect x="121.3" y="189.4" class="st10" width="2.6" height="23.7"/>
<rect x="192" y="118.7" class="st11" width="23.7" height="2.6"/>
<rect x="198.6" y="133.3" transform="matrix(0.309 -0.9511 0.9511 0.309 0.1252 290.4352)" class="st2" width="2.6" height="23.7"/>
<rect x="187.1" y="155.9" transform="matrix(0.5878 -0.809 0.809 0.5878 -58.0805 221.5553)" class="st3" width="2.6" height="23.7"/>
<rect x="188.1" y="93.6" transform="matrix(0.9511 -0.309 0.309 0.9511 -19.5354 66.4171)" class="st2" width="23.7" height="2.6"/>
<rect x="176.5" y="70.9" transform="matrix(0.809 -0.5878 0.5878 0.809 -6.4679 124.5261)" class="st12" width="23.7" height="2.6"/>
<rect x="131.4" y="34.4" transform="matrix(0.1874 -0.9823 0.9823 0.1874 77.6397 165.2502)" class="st13" width="14.7" height="2.6"/>
<rect x="146.9" y="38.9" transform="matrix(0.3681 -0.9298 0.9298 0.3681 60.0752 168.7848)" class="st14" width="14.7" height="2.6"/>
<rect x="161.3" y="46.2" transform="matrix(0.5358 -0.8443 0.8443 0.5358 38.1249 164.4065)" class="st15" width="14.7" height="2.6"/>
<rect x="174" y="56.1" transform="matrix(0.6845 -0.729 0.729 0.6845 15.3585 150.341)" class="st3" width="14.7" height="2.6"/>
<rect x="157.9" y="77.2" class="st16" width="21.4" height="26.4"/>
<text transform="matrix(1 0 0 1 157.8837 90.0124)" class="st17 st18 st19">10</text>
<rect x="118.4" y="56.3" class="st16" width="21.4" height="26.4"/>
<text transform="matrix(1 0 0 1 118.3828 69.1194)" class="st17 st18 st19">5</text>
<rect x="59.9" y="113.8" class="st16" width="21.4" height="26.4"/>
<text transform="matrix(1 0 0 1 59.8592 126.5957)" class="st17 st18 st19">0</text>
<rect x="118.4" y="166.1" class="st16" width="21.4" height="26.4"/>
<text transform="matrix(1 0 0 1 118.3828 178.8466)" class="st17 st18 st19">5</text>
<rect x="157.6" y="149" class="st16" width="21.4" height="26.4"/>
<text transform="matrix(1 0 0 1 157.6245 161.7679)" class="st17 st18 st19">10</text>
<rect x="168.6" y="113.1" class="st16" width="21.4" height="26.4"/>
<text transform="matrix(1 0 0 1 168.6047 125.8901)" class="st17 st18 st19">30</text>
<rect x="93.8" y="138.3" class="st16" width="60.1" height="21.5"/>
<text transform="matrix(1 0 0 1 93.8446 151.0421)" class="st17 st18 st19">m/min</text>
<rect x="81.3" y="82.1" class="st16" width="63.8" height="21.5"/>
<text transform="matrix(1 0 0 1 81.3012 88.5393)" class="st17 st18 st20">VERTICAL SPEED</text>
</svg>
