<?xml version="1.0" encoding="utf-8"?>
<!-- Generator: Adobe Illustrator 24.3.0, SVG Export Plug-In . SVG Version: 6.00 Build 0)  -->
<svg version="1.1" id="Layer_1" xmlns="http://www.w3.org/2000/svg" xmlns:xlink="http://www.w3.org/1999/xlink" x="0px" y="0px"
	 viewBox="0 0 249 250" style="enable-background:new 0 0 249 250;" xml:space="preserve">
<style type="text/css">
	.st0{fill:#030304;stroke:#020203;stroke-miterlimit:10;}
	.st1{fill:#FFFFFF;stroke:#020203;stroke-miterlimit:10;}
	.st2{fill:#FFFFFF;stroke:#020203;stroke-width:1;stroke-miterlimit:10.0004;}
	.st3{fill:#FFFFFF;stroke:#020203;stroke-width:1;stroke-miterlimit:9.9999;}
	.st4{fill:#FFFFFF;stroke:#020203;stroke-width:1;stroke-miterlimit:9.9996;}
	.st5{fill:#FFFFFF;stroke:#020203;stroke-width:1;stroke-miterlimit:10.0001;}
	.st6{fill:#FFFFFF;stroke:#020203;stroke-width:1;stroke-miterlimit:10.0002;}
	.st7{fill:#020203;}
	.st8{font-family:'MyriadCAD';}
	.st9{font-size:12px;}
	.st10{fill:#FFFFFF;}
</style>
<circle class="st0" cx="124.5" cy="125" r="120"/>
<rect x="122.89" y="8.55" class="st1" width="3.21" height="18.34"/>
<rect x="89.75" y="13.81" transform="matrix(0.9511 -0.309 0.309 0.9511 -2.6307 29.3513)" class="st2" width="3.21" height="18.34"/>
<rect x="59.84" y="29.03" transform="matrix(0.809 -0.5878 0.5878 0.809 -10.7199 43.4139)" class="st3" width="3.21" height="18.34"/>
<rect x="36.1" y="52.78" transform="matrix(0.5878 -0.809 0.809 0.5878 -34.5758 56.0379)" class="st3" width="3.21" height="18.34"/>
<rect x="20.88" y="82.66" transform="matrix(0.309 -0.9511 0.9511 0.309 -71.8067 84.8387)" class="st2" width="3.21" height="18.34"/>
<rect x="8.05" y="123.4" class="st1" width="18.34" height="3.21"/>
<rect x="13.31" y="156.54" transform="matrix(0.9511 -0.309 0.309 0.9511 -47.7652 14.6856)" class="st2" width="18.34" height="3.21"/>
<rect x="28.53" y="186.45" transform="matrix(0.809 -0.5878 0.5878 0.809 -103.3392 58.081)" class="st3" width="18.34" height="3.21"/>
<rect x="52.28" y="210.19" transform="matrix(0.5878 -0.809 0.809 0.5878 -146.014 137.012)" class="st3" width="18.34" height="3.21"/>
<rect x="82.17" y="225.41" transform="matrix(0.309 -0.9511 0.9511 0.309 -152.795 243.7396)" class="st2" width="18.34" height="3.21"/>
<rect x="122.9" y="223.11" class="st1" width="3.21" height="18.34"/>
<rect x="209.68" y="178.88" transform="matrix(0.5878 -0.809 0.809 0.5878 -65.04 248.4461)" class="st3" width="3.21" height="18.34"/>
<rect x="196.34" y="194.01" transform="matrix(0.729 -0.6845 0.6845 0.729 -85.4345 190.5574)" class="st3" width="3.21" height="18.34"/>
<rect x="180.4" y="206.41" transform="matrix(0.8443 -0.5358 0.5358 0.8443 -87.1814 131.0785)" class="st4" width="3.21" height="18.34"/>
<rect x="162.39" y="215.57" transform="matrix(0.9298 -0.3681 0.3681 0.9298 -71.2108 76.1449)" class="st5" width="3.21" height="18.34"/>
<rect x="142.98" y="221.21" transform="matrix(0.9823 -0.1874 0.1874 0.9823 -40.6112 31.177)" class="st6" width="3.21" height="18.34"/>
<rect x="224.92" y="149" transform="matrix(0.309 -0.9511 0.9511 0.309 6.1042 324.7367)" class="st2" width="3.21" height="18.34"/>
<rect x="222.61" y="123.4" class="st1" width="18.34" height="3.21"/>
<rect x="217.34" y="90.25" transform="matrix(0.9511 -0.309 0.309 0.9511 -17.2984 74.4844)" class="st2" width="18.34" height="3.21"/>
<rect x="202.13" y="60.34" transform="matrix(0.809 -0.5878 0.5878 0.809 3.9491 136.0353)" class="st3" width="18.34" height="3.21"/>
<rect x="122.89" y="8.55" class="st1" width="3.21" height="29.66"/>
<rect x="8.05" y="123.4" class="st1" width="29.66" height="3.21"/>
<rect x="122.9" y="211.79" class="st1" width="3.21" height="29.66"/>
<rect x="211.29" y="123.4" class="st1" width="29.66" height="3.21"/>
<rect x="219.54" y="141.59" transform="matrix(0.309 -0.9511 0.9511 0.309 4.0477 318.4124)" class="st2" width="3.21" height="29.66"/>
<rect x="205.11" y="169.89" transform="matrix(0.5878 -0.809 0.809 0.5878 -64.2348 243.3759)" class="st3" width="3.21" height="29.66"/>
<rect x="206.3" y="92" transform="matrix(0.9511 -0.309 0.309 0.9511 -18.1025 72.907)" class="st2" width="29.66" height="3.21"/>
<rect x="191.89" y="63.66" transform="matrix(0.809 -0.5878 0.5878 0.809 1.1185 133.9771)" class="st3" width="29.66" height="3.21"/>
<rect x="135.44" y="18.02" transform="matrix(0.1874 -0.9823 0.9823 0.1874 98.2273 157.9931)" class="st6" width="18.34" height="3.21"/>
<rect x="154.84" y="23.64" transform="matrix(0.3681 -0.9298 0.9298 0.3681 80.1616 168.4454)" class="st5" width="18.34" height="3.21"/>
<rect x="172.81" y="32.8" transform="matrix(0.5358 -0.8443 0.8443 0.5358 55.4199 169.6236)" class="st4" width="18.34" height="3.21"/>
<rect x="188.79" y="45.17" transform="matrix(0.6845 -0.729 0.729 0.6845 28.3521 159.0716)" class="st3" width="18.34" height="3.21"/>
<text transform="matrix(1 0 0 1 120.8633 47.9873)" class="st7 st8 st9">5</text>
<text transform="matrix(1 0 0 1 121.3672 51.6853)" class="st10 st8 st9">5</text>
<text transform="matrix(1 0 0 1 121.871 205.6538)" class="st10 st8 st9">5</text>
<text transform="matrix(1 0 0 1 42.3636 128.5069)" class="st10 st8 st9">0</text>
<text transform="matrix(1 0 0 1 192.6531 128.5068)" class="st10 st8 st9">30</text>
<text transform="matrix(1 0 0 1 178.9371 174.7657)" class="st10 st8 st9">10</text>
<text transform="matrix(1 0 0 1 180.6412 82.898)" class="st10 st8 st9">10</text>
</svg>
