<?xml version="1.0" encoding="utf-8"?>
<!-- Generator: Adobe Illustrator 24.3.0, SVG Export Plug-In . SVG Version: 6.00 Build 0)  -->
<svg version="1.1" id="Layer_1" xmlns="http://www.w3.org/2000/svg" xmlns:xlink="http://www.w3.org/1999/xlink" x="0px" y="0px"
	 viewBox="0 0 240 240" style="enable-background:new 0 0 240 240;" xml:space="preserve">
<style type="text/css">
	.st0{fill:#030304;stroke:#020203;stroke-miterlimit:10;}
	.st1{fill:#FFFFFF;stroke:#020203;stroke-miterlimit:10;}
	.st2{fill:#FFFFFF;stroke:#020203;stroke-width:1;stroke-miterlimit:10.0004;}
	.st3{fill:#FFFFFF;stroke:#020203;stroke-width:1;stroke-miterlimit:9.9999;}
	.st4{fill:#FFFFFF;stroke:#020203;stroke-width:1;stroke-miterlimit:9.9996;}
	.st5{fill:#FFFFFF;stroke:#020203;stroke-width:1;stroke-miterlimit:10.0001;}
	.st6{fill:#FFFFFF;stroke:#020203;stroke-width:1;stroke-miterlimit:10.0002;}
	.st7{fill:#020203;}
	.st8{font-family:'MyriadCAD';}
	.st9{font-size:9.6px;}
	.st10{fill:#FFFFFF;}
</style>
<circle class="st0" cx="122.61" cy="120" r="96"/>
<rect x="121.32" y="26.84" class="st1" width="2.57" height="14.67"/>
<rect x="94.81" y="31.05" transform="matrix(0.9511 -0.309 0.309 0.9511 -7.1584 31.5694)" class="st2" width="2.57" height="14.67"/>
<rect x="70.88" y="43.23" transform="matrix(0.809 -0.5878 0.5878 0.809 -15.9373 52.076)" class="st3" width="2.57" height="14.67"/>
<rect x="51.89" y="62.22" transform="matrix(0.5878 -0.809 0.809 0.5878 -34.3564 71.6889)" class="st3" width="2.57" height="14.67"/>
<rect x="39.71" y="86.13" transform="matrix(0.309 -0.9511 0.9511 0.309 -60.567 103.5746)" class="st2" width="2.57" height="14.67"/>
<rect x="29.45" y="118.72" class="st1" width="14.67" height="2.57"/>
<rect x="33.66" y="145.23" transform="matrix(0.9511 -0.309 0.309 0.9511 -43.266 19.8368)" class="st2" width="14.67" height="2.57"/>
<rect x="45.84" y="169.16" transform="matrix(0.809 -0.5878 0.5878 0.809 -90.0328 63.8097)" class="st3" width="14.67" height="2.57"/>
<rect x="64.83" y="188.15" transform="matrix(0.5878 -0.809 0.809 0.5878 -123.5069 136.4682)" class="st3" width="14.67" height="2.57"/>
<rect x="88.74" y="200.33" transform="matrix(0.309 -0.9511 0.9511 0.309 -125.3576 230.6953)" class="st2" width="14.67" height="2.57"/>
<rect x="121.33" y="198.49" class="st1" width="2.57" height="14.67"/>
<rect x="190.76" y="163.1" transform="matrix(0.5878 -0.809 0.809 0.5878 -58.7277 225.6154)" class="st3" width="2.57" height="14.67"/>
<rect x="180.08" y="175.21" transform="matrix(0.729 -0.6845 0.6845 0.729 -75.8024 173.6158)" class="st3" width="2.57" height="14.67"/>
<rect x="167.33" y="185.13" transform="matrix(0.8443 -0.5358 0.5358 0.8443 -76.8797 120.305)" class="st4" width="2.57" height="14.67"/>
<rect x="152.92" y="192.45" transform="matrix(0.9298 -0.3681 0.3681 0.9298 -62.715 70.7898)" class="st5" width="2.57" height="14.67"/>
<rect x="137.4" y="196.97" transform="matrix(0.9823 -0.1874 0.1874 0.9823 -35.8293 29.6078)" class="st6" width="2.57" height="14.67"/>
<rect x="202.95" y="139.2" transform="matrix(0.309 -0.9511 0.9511 0.309 1.7617 295.493)" class="st2" width="2.57" height="14.67"/>
<rect x="201.1" y="118.72" class="st1" width="14.67" height="2.57"/>
<rect x="196.88" y="92.2" transform="matrix(0.9511 -0.309 0.309 0.9511 -18.8925 67.6758)" class="st2" width="14.67" height="2.57"/>
<rect x="184.72" y="68.27" transform="matrix(0.809 -0.5878 0.5878 0.809 -4.2021 126.1731)" class="st3" width="14.67" height="2.57"/>
<rect x="121.32" y="26.84" class="st1" width="2.57" height="23.73"/>
<rect x="29.45" y="118.72" class="st1" width="23.73" height="2.57"/>
<rect x="121.33" y="189.44" class="st1" width="2.57" height="23.73"/>
<rect x="192.04" y="118.72" class="st1" width="23.73" height="2.57"/>
<rect x="198.64" y="133.27" transform="matrix(0.309 -0.9511 0.9511 0.309 0.1165 290.4334)" class="st2" width="2.57" height="23.73"/>
<rect x="187.1" y="155.91" transform="matrix(0.5878 -0.809 0.809 0.5878 -58.0836 221.5592)" class="st3" width="2.57" height="23.73"/>
<rect x="188.05" y="93.6" transform="matrix(0.9511 -0.309 0.309 0.9511 -19.5358 66.4139)" class="st2" width="23.73" height="2.57"/>
<rect x="176.52" y="70.93" transform="matrix(0.809 -0.5878 0.5878 0.809 -6.4665 124.5265)" class="st3" width="23.73" height="2.57"/>
<rect x="131.36" y="34.42" transform="matrix(0.1874 -0.9823 0.9823 0.1874 77.6336 165.2482)" class="st6" width="14.67" height="2.57"/>
<rect x="146.88" y="38.91" transform="matrix(0.3681 -0.9298 0.9298 0.3681 60.0732 168.7882)" class="st5" width="14.67" height="2.57"/>
<rect x="161.26" y="46.24" transform="matrix(0.5358 -0.8443 0.8443 0.5358 38.1297 164.41)" class="st4" width="14.67" height="2.57"/>
<rect x="174.04" y="56.14" transform="matrix(0.6845 -0.729 0.729 0.6845 15.3608 150.3411)" class="st3" width="14.67" height="2.57"/>
<text transform="matrix(1 0 0 1 119.7001 58.3896)" class="st7 st8 st9">5</text>
<text transform="matrix(1 0 0 1 120.1034 61.3486)" class="st10 st8 st9">5</text>
<text transform="matrix(1 0 0 1 120.5063 184.5234)" class="st10 st8 st9">5</text>
<text transform="matrix(1 0 0 1 56.9003 122.8057)" class="st10 st8 st9">0</text>
<text transform="matrix(1 0 0 1 181.3603 122.9111)" class="st10 st8 st9">30</text>
<text transform="matrix(1 0 0 1 166.1591 159.8125)" class="st10 st8 st9">10</text>
<text transform="matrix(1 0 0 1 168.5956 84.9692)" class="st10 st8 st9">10</text>
</svg>
