<?xml version="1.0" encoding="utf-8"?>
<!-- Generator: Adobe Illustrator 24.3.0, SVG Export Plug-In . SVG Version: 6.00 Build 0)  -->
<svg version="1.1" id="Layer_1" xmlns="http://www.w3.org/2000/svg" xmlns:xlink="http://www.w3.org/1999/xlink" x="0px" y="0px"
	 viewBox="0 0 240 240" style="enable-background:new 0 0 240 240;" xml:space="preserve">
<style type="text/css">
	.st0{fill:#010202;stroke:#000000;stroke-miterlimit:10;}
	.st1{fill:#FFFFFF;stroke:#FFFFFF;stroke-miterlimit:10;}
	.st2{fill:#EFEFEF;}
	.st3{font-family:'MyriadPro-Regular';}
	.st4{font-size:12px;}
	.st5{fill:#FDFDFD;}
	.st6{fill:none;}
</style>
<ellipse class="st0" cx="120" cy="120.69" rx="95.5" ry="96"/>
<rect x="120" y="27.8" class="st1" width="1.58" height="17.84"/>
<rect x="35.92" y="110.29" transform="matrix(4.476337e-11 -1 1 4.476337e-11 -82.4941 155.9211)" class="st1" width="1.58" height="17.84"/>
<rect x="116.95" y="194.73" transform="matrix(-1 -8.952673e-11 8.952673e-11 -1 235.4777 407.2994)" class="st1" width="1.58" height="17.84"/>
<rect x="202.49" y="111.87" transform="matrix(-1.354376e-10 1 -1 -1.354376e-10 324.0789 -82.4941)" class="st1" width="1.58" height="17.84"/>
<rect x="120.18" y="28.14" transform="matrix(-1 -1.224647e-16 1.224647e-16 -1 241.5924 60.938)" class="st1" width="1.22" height="4.66"/>
<rect x="117.06" y="28.17" transform="matrix(-0.9994 0.0349 -0.0349 -0.9994 236.3348 56.8663)" class="st1" width="1.22" height="4.66"/>
<rect x="113.94" y="28.3" transform="matrix(-0.9976 0.0698 -0.0698 -0.9976 230.9555 53.198)" class="st1" width="1.22" height="4.66"/>
<rect x="110.82" y="28.55" transform="matrix(-0.9945 0.1045 -0.1045 -0.9945 225.4836 49.9354)" class="st1" width="1.22" height="4.66"/>
<rect x="107.72" y="28.9" transform="matrix(-0.9903 0.1392 -0.1392 -0.9903 219.9483 47.0788)" class="st1" width="1.22" height="4.66"/>
<rect x="104.63" y="29.36" transform="matrix(-0.9848 0.1736 -0.1736 -0.9848 214.3787 44.6262)" class="st1" width="1.22" height="4.66"/>
<rect x="101.55" y="29.93" transform="matrix(-0.9781 0.2079 -0.2079 -0.9781 208.8032 42.5738)" class="st1" width="1.22" height="4.66"/>
<rect x="98.5" y="30.61" transform="matrix(-0.9703 0.2419 -0.2419 -0.9703 203.2499 40.9158)" class="st1" width="1.22" height="4.66"/>
<rect x="95.48" y="31.39" transform="matrix(-0.9613 0.2756 -0.2756 -0.9613 197.7461 39.6443)" class="st1" width="1.22" height="4.66"/>
<rect x="92.48" y="32.28" transform="matrix(-0.9511 0.309 -0.309 -0.9511 192.3186 38.7496)" class="st1" width="1.22" height="4.66"/>
<rect x="89.52" y="33.27" transform="matrix(-0.9397 0.342 -0.342 -0.9397 186.9928 38.2203)" class="st1" width="1.22" height="4.66"/>
<rect x="86.59" y="34.36" transform="matrix(-0.9272 0.3746 -0.3746 -0.9272 181.7934 38.0431)" class="st1" width="1.22" height="4.66"/>
<rect x="83.7" y="35.56" transform="matrix(-0.9135 0.4067 -0.4067 -0.9135 176.7439 38.203)" class="st1" width="1.22" height="4.66"/>
<rect x="80.86" y="36.85" transform="matrix(-0.8988 0.4384 -0.4384 -0.8988 171.8664 38.6836)" class="st1" width="1.22" height="4.66"/>
<rect x="78.06" y="38.25" transform="matrix(-0.8829 0.4695 -0.4695 -0.8829 167.1817 39.467)" class="st1" width="1.22" height="4.66"/>
<rect x="75.31" y="39.74" transform="matrix(-0.866 0.5 -0.5 -0.866 162.7091 40.5339)" class="st1" width="1.22" height="4.66"/>
<rect x="72.62" y="41.32" transform="matrix(-0.848 0.5299 -0.5299 -0.848 158.4662 41.8636)" class="st1" width="1.22" height="4.66"/>
<rect x="69.98" y="43" transform="matrix(-0.829 0.5592 -0.5592 -0.829 154.4692 43.4345)" class="st1" width="1.22" height="4.66"/>
<rect x="67.41" y="44.77" transform="matrix(-0.809 0.5878 -0.5878 -0.809 150.7324 45.2239)" class="st1" width="1.22" height="4.66"/>
<rect x="64.9" y="46.63" transform="matrix(-0.788 0.6157 -0.6157 -0.788 147.2684 47.2083)" class="st1" width="1.22" height="4.66"/>
<rect x="62.45" y="48.57" transform="matrix(-0.766 0.6428 -0.6428 -0.766 144.0878 49.3634)" class="st1" width="1.22" height="4.66"/>
<rect x="60.07" y="50.6" transform="matrix(-0.7431 0.6691 -0.6691 -0.7431 141.1995 51.6641)" class="st1" width="1.22" height="4.66"/>
<rect x="57.77" y="52.71" transform="matrix(-0.7193 0.6947 -0.6947 -0.7193 138.6104 54.0852)" class="st1" width="1.22" height="4.66"/>
<rect x="55.54" y="54.9" transform="matrix(-0.6947 0.7193 -0.7193 -0.6947 136.3254 56.601)" class="st1" width="1.22" height="4.66"/>
<rect x="53.39" y="57.17" transform="matrix(-0.6691 0.7431 -0.7431 -0.6691 134.3476 59.1854)" class="st1" width="1.22" height="4.66"/>
<rect x="51.32" y="59.51" transform="matrix(-0.6428 0.766 -0.766 -0.6428 132.6779 61.8127)" class="st1" width="1.22" height="4.66"/>
<rect x="49.33" y="61.92" transform="matrix(-0.6157 0.788 -0.788 -0.6157 131.3153 64.4569)" class="st1" width="1.22" height="4.66"/>
<rect x="47.42" y="64.4" transform="matrix(-0.5878 0.809 -0.809 -0.5878 130.2571 67.0925)" class="st1" width="1.22" height="4.66"/>
<rect x="45.61" y="66.95" transform="matrix(-0.5592 0.829 -0.829 -0.5592 129.4984 69.6942)" class="st1" width="1.22" height="4.66"/>
<rect x="43.88" y="69.55" transform="matrix(-0.5299 0.848 -0.848 -0.5299 129.0325 72.2374)" class="st1" width="1.22" height="4.66"/>
<rect x="42.25" y="72.22" transform="matrix(-0.5 0.866 -0.866 -0.5 128.8508 74.6979)" class="st1" width="1.22" height="4.66"/>
<rect x="40.71" y="74.94" transform="matrix(-0.4695 0.8829 -0.8829 -0.4695 128.9432 77.0527)" class="st1" width="1.22" height="4.66"/>
<rect x="39.27" y="77.71" transform="matrix(-0.4384 0.8988 -0.8988 -0.4384 129.2974 79.2792)" class="st1" width="1.22" height="4.66"/>
<rect x="37.92" y="80.53" transform="matrix(-0.4067 0.9135 -0.9135 -0.4067 129.8998 81.3563)" class="st1" width="1.22" height="4.66"/>
<rect x="36.68" y="83.39" transform="matrix(-0.3746 0.9272 -0.9272 -0.3746 130.7353 83.2638)" class="st1" width="1.22" height="4.66"/>
<rect x="35.53" y="86.3" transform="matrix(-0.342 0.9397 -0.9397 -0.342 131.7869 84.9827)" class="st1" width="1.22" height="4.66"/>
<rect x="34.49" y="89.25" transform="matrix(-0.309 0.9511 -0.9511 -0.309 133.0367 86.4956)" class="st1" width="1.22" height="4.66"/>
<rect x="33.55" y="92.23" transform="matrix(-0.2756 0.9613 -0.9613 -0.2756 134.4653 87.7863)" class="st1" width="1.22" height="4.66"/>
<rect x="32.71" y="95.24" transform="matrix(-0.2419 0.9703 -0.9703 -0.2419 136.052 88.8405)" class="st1" width="1.22" height="4.66"/>
<rect x="31.98" y="98.28" transform="matrix(-0.2079 0.9781 -0.9781 -0.2079 137.7753 89.6452)" class="st1" width="1.22" height="4.66"/>
<rect x="31.36" y="101.34" transform="matrix(-0.1736 0.9848 -0.9848 -0.1736 139.6126 90.1892)" class="st1" width="1.22" height="4.66"/>
<rect x="30.84" y="104.42" transform="matrix(-0.1392 0.9903 -0.9903 -0.1392 141.5407 90.4631)" class="st1" width="1.22" height="4.66"/>
<rect x="30.43" y="107.52" transform="matrix(-0.1045 0.9945 -0.9945 -0.1045 143.5354 90.4594)" class="st1" width="1.22" height="4.66"/>
<rect x="30.13" y="110.63" transform="matrix(-0.0698 0.9976 -0.9976 -0.0698 145.5724 90.1723)" class="st1" width="1.22" height="4.66"/>
<rect x="29.94" y="113.75" transform="matrix(-0.0349 0.9994 -0.9994 -0.0349 147.6266 89.5981)" class="st1" width="1.22" height="4.66"/>
<rect x="29.86" y="116.87" transform="matrix(-4.610908e-11 1 -1 -4.610908e-11 149.6728 88.7348)" class="st1" width="1.22" height="4.66"/>
<rect x="29.88" y="120" transform="matrix(0.0349 0.9994 -0.9994 0.0349 151.6859 87.5825)" class="st1" width="1.22" height="4.66"/>
<rect x="30.02" y="123.12" transform="matrix(0.0698 0.9976 -0.9976 0.0698 153.6404 86.1431)" class="st1" width="1.22" height="4.66"/>
<rect x="30.26" y="126.24" transform="matrix(0.1045 0.9945 -0.9945 0.1045 155.5112 84.4207)" class="st1" width="1.22" height="4.66"/>
<rect x="30.62" y="129.34" transform="matrix(0.1392 0.9903 -0.9903 0.1392 157.2737 82.4211)" class="st1" width="1.22" height="4.66"/>
<rect x="31.08" y="132.43" transform="matrix(0.1736 0.9848 -0.9848 0.1736 158.9033 80.152)" class="st1" width="1.22" height="4.66"/>
<rect x="31.65" y="135.51" transform="matrix(0.2079 0.9781 -0.9781 0.2079 160.3764 77.6231)" class="st1" width="1.22" height="4.66"/>
<rect x="32.32" y="138.56" transform="matrix(0.2419 0.9703 -0.9703 0.2419 161.67 74.8458)" class="st1" width="1.22" height="4.66"/>
<rect x="33.11" y="141.58" transform="matrix(0.2756 0.9613 -0.9613 0.2756 162.7617 71.8334)" class="st1" width="1.22" height="4.66"/>
<rect x="33.99" y="144.58" transform="matrix(0.309 0.9511 -0.9511 0.309 163.6306 68.6006)" class="st1" width="1.22" height="4.66"/>
<rect x="34.98" y="147.54" transform="matrix(0.342 0.9397 -0.9397 0.342 164.2563 65.1642)" class="st1" width="1.22" height="4.66"/>
<rect x="36.08" y="150.47" transform="matrix(0.3746 0.9272 -0.9272 0.3746 164.6201 61.5421)" class="st1" width="1.22" height="4.66"/>
<rect x="37.27" y="153.36" transform="matrix(0.4067 0.9135 -0.9135 0.4067 164.7043 57.7539)" class="st1" width="1.22" height="4.66"/>
<rect x="38.57" y="156.2" transform="matrix(0.4384 0.8988 -0.8988 0.4384 164.493 53.8205)" class="st1" width="1.22" height="4.66"/>
<rect x="39.96" y="159" transform="matrix(0.4695 0.8829 -0.8829 0.4695 163.9715 49.7641)" class="st1" width="1.22" height="4.66"/>
<rect x="41.45" y="161.75" transform="matrix(0.5 0.866 -0.866 0.5 163.1269 45.6079)" class="st1" width="1.22" height="4.66"/>
<rect x="43.04" y="164.44" transform="matrix(0.5299 0.848 -0.848 0.5299 161.9479 41.3763)" class="st1" width="1.22" height="4.66"/>
<rect x="44.72" y="167.08" transform="matrix(0.5592 0.829 -0.829 0.5592 160.425 37.0945)" class="st1" width="1.22" height="4.66"/>
<rect x="46.49" y="169.65" transform="matrix(0.5878 0.809 -0.809 0.5878 158.5507 32.7884)" class="st1" width="1.22" height="4.66"/>
<rect x="48.35" y="172.16" transform="matrix(0.6157 0.788 -0.788 0.6157 156.3193 28.4847)" class="st1" width="1.22" height="4.66"/>
<rect x="50.29" y="174.61" transform="matrix(0.6428 0.766 -0.766 0.6428 153.7269 24.2106)" class="st1" width="1.22" height="4.66"/>
<rect x="52.32" y="176.99" transform="matrix(0.6691 0.7431 -0.7431 0.6691 150.7718 19.9935)" class="st1" width="1.22" height="4.66"/>
<rect x="54.43" y="179.29" transform="matrix(0.6947 0.7193 -0.7193 0.6947 147.4542 15.8612)" class="st1" width="1.22" height="4.66"/>
<rect x="56.62" y="181.52" transform="matrix(0.7193 0.6947 -0.6947 0.7193 143.7763 11.8415)" class="st1" width="1.22" height="4.66"/>
<rect x="58.89" y="183.67" transform="matrix(0.7431 0.6691 -0.6691 0.7431 139.7424 7.962)" class="st1" width="1.22" height="4.66"/>
<rect x="61.23" y="185.74" transform="matrix(0.766 0.6428 -0.6428 0.766 135.3589 4.2503)" class="st1" width="1.22" height="4.66"/>
<rect x="63.64" y="187.73" transform="matrix(0.788 0.6157 -0.6157 0.788 130.634 0.7336)" class="st1" width="1.22" height="4.66"/>
<rect x="66.12" y="189.64" transform="matrix(0.809 0.5878 -0.5878 0.809 125.5781 -2.5616)" class="st1" width="1.22" height="4.66"/>
<rect x="68.66" y="191.45" transform="matrix(0.829 0.5592 -0.5592 0.829 120.2034 -5.609)" class="st1" width="1.22" height="4.66"/>
<rect x="71.27" y="193.18" transform="matrix(0.848 0.5299 -0.5299 0.848 114.5241 -8.3836)" class="st1" width="1.22" height="4.66"/>
<rect x="73.93" y="194.81" transform="matrix(0.866 0.5 -0.5 0.866 108.5561 -10.861)" class="st1" width="1.22" height="4.66"/>
<rect x="76.65" y="196.35" transform="matrix(0.8829 0.4695 -0.4695 0.8829 102.3174 -13.0179)" class="st1" width="1.22" height="4.66"/>
<rect x="79.43" y="197.79" transform="matrix(0.8988 0.4384 -0.4384 0.8988 95.8274 -14.8323)" class="st1" width="1.22" height="4.66"/>
<rect x="82.25" y="199.14" transform="matrix(0.9135 0.4067 -0.4067 0.9135 89.1073 -16.2833)" class="st1" width="1.22" height="4.66"/>
<rect x="85.11" y="200.38" transform="matrix(0.9272 0.3746 -0.3746 0.9272 82.1798 -17.3516)" class="st1" width="1.22" height="4.66"/>
<rect x="88.02" y="201.53" transform="matrix(0.9397 0.342 -0.342 0.9397 75.0691 -18.0192)" class="st1" width="1.22" height="4.66"/>
<rect x="90.96" y="202.57" transform="matrix(0.9511 0.309 -0.309 0.9511 67.8006 -18.2699)" class="st1" width="1.22" height="4.66"/>
<rect x="93.95" y="203.51" transform="matrix(0.9613 0.2756 -0.2756 0.9613 60.4011 -18.0893)" class="st1" width="1.22" height="4.66"/>
<rect x="96.96" y="204.35" transform="matrix(0.9703 0.2419 -0.2419 0.9703 52.8983 -17.4646)" class="st1" width="1.22" height="4.66"/>
<rect x="100" y="205.08" transform="matrix(0.9781 0.2079 -0.2079 0.9781 45.3212 -16.3849)" class="st1" width="1.22" height="4.66"/>
<rect x="103.06" y="205.7" transform="matrix(0.9848 0.1736 -0.1736 0.9848 37.6994 -14.8415)" class="st1" width="1.22" height="4.66"/>
<rect x="106.14" y="206.22" transform="matrix(0.9903 0.1392 -0.1392 0.9903 30.0633 -12.8273)" class="st1" width="1.22" height="4.66"/>
<rect x="109.24" y="206.63" transform="matrix(0.9945 0.1045 -0.1045 0.9945 22.4438 -10.3377)" class="st1" width="1.22" height="4.66"/>
<rect x="112.35" y="206.93" transform="matrix(0.9976 0.0698 -0.0698 0.9976 14.8722 -7.37)" class="st1" width="1.22" height="4.66"/>
<rect x="115.47" y="207.12" transform="matrix(0.9994 0.0349 -0.0349 0.9994 7.3804 -3.9235)" class="st1" width="1.22" height="4.66"/>
<rect x="118.59" y="207.2" class="st1" width="1.22" height="4.66"/>
<rect x="121.72" y="207.18" transform="matrix(0.9994 -0.0349 0.0349 0.9994 -7.2371 4.3968)" class="st1" width="1.22" height="4.66"/>
<rect x="124.84" y="207.04" transform="matrix(0.9976 -0.0698 0.0698 0.9976 -14.2992 9.261)" class="st1" width="1.22" height="4.66"/>
<rect x="127.96" y="206.79" transform="matrix(0.9945 -0.1045 0.1045 0.9945 -21.1551 14.5845)" class="st1" width="1.22" height="4.66"/>
<rect x="131.06" y="206.44" transform="matrix(0.9903 -0.1392 0.1392 0.9903 -27.7738 20.3569)" class="st1" width="1.22" height="4.66"/>
<rect x="134.15" y="205.98" transform="matrix(0.9848 -0.1736 0.1736 0.9848 -34.1251 26.566)" class="st1" width="1.22" height="4.66"/>
<rect x="137.22" y="205.41" transform="matrix(0.9781 -0.2079 0.2079 0.9781 -40.1795 33.1973)" class="st1" width="1.22" height="4.66"/>
<rect x="140.28" y="204.74" transform="matrix(0.9703 -0.2419 0.2419 0.9703 -45.9084 40.2343)" class="st1" width="1.22" height="4.66"/>
<rect x="143.3" y="203.95" transform="matrix(0.9613 -0.2756 0.2756 0.9613 -51.2841 47.6587)" class="st1" width="1.22" height="4.66"/>
<rect x="146.3" y="203.07" transform="matrix(0.9511 -0.309 0.309 0.9511 -56.2803 55.4502)" class="st1" width="1.22" height="4.66"/>
<rect x="149.26" y="202.08" transform="matrix(0.9397 -0.342 0.342 0.9397 -60.8718 63.5867)" class="st1" width="1.22" height="4.66"/>
<rect x="152.19" y="200.98" transform="matrix(0.9272 -0.3746 0.3746 0.9272 -65.0349 72.0444)" class="st1" width="1.22" height="4.66"/>
<rect x="155.08" y="199.79" transform="matrix(0.9135 -0.4067 0.4067 0.9135 -68.7474 80.7978)" class="st1" width="1.22" height="4.66"/>
<rect x="157.92" y="198.49" transform="matrix(0.8988 -0.4384 0.4384 0.8988 -71.9888 89.82)" class="st1" width="1.22" height="4.66"/>
<rect x="160.72" y="197.1" transform="matrix(0.8829 -0.4695 0.4695 0.8829 -74.7404 99.0827)" class="st1" width="1.22" height="4.66"/>
<rect x="163.46" y="195.61" transform="matrix(0.866 -0.5 0.5 0.866 -76.9851 108.5561)" class="st1" width="1.22" height="4.66"/>
<rect x="166.16" y="194.02" transform="matrix(0.848 -0.5299 0.5299 0.848 -78.708 118.2096)" class="st1" width="1.22" height="4.66"/>
<rect x="168.79" y="192.34" transform="matrix(0.829 -0.5592 0.5592 0.829 -79.8961 128.0113)" class="st1" width="1.22" height="4.66"/>
<rect x="171.37" y="190.57" transform="matrix(0.809 -0.5878 0.5878 0.809 -80.5384 137.9285)" class="st1" width="1.22" height="4.66"/>
<rect x="173.88" y="188.71" transform="matrix(0.788 -0.6157 0.6157 0.788 -80.6262 147.9276)" class="st1" width="1.22" height="4.66"/>
<rect x="176.33" y="186.77" transform="matrix(0.766 -0.6428 0.6428 0.766 -80.1529 157.9747)" class="st1" width="1.22" height="4.66"/>
<rect x="178.7" y="184.74" transform="matrix(0.7431 -0.6691 0.6691 0.7431 -79.1141 168.0352)" class="st1" width="1.22" height="4.66"/>
<rect x="181.01" y="182.63" transform="matrix(0.7193 -0.6947 0.6947 0.7193 -77.5077 178.0742)" class="st1" width="1.22" height="4.66"/>
<rect x="183.24" y="180.44" transform="matrix(0.6947 -0.7193 0.7193 0.6947 -75.3339 188.0568)" class="st1" width="1.22" height="4.66"/>
<rect x="185.39" y="178.17" transform="matrix(0.6691 -0.7431 0.7431 0.6691 -72.5951 197.948)" class="st1" width="1.22" height="4.66"/>
<rect x="187.46" y="175.83" transform="matrix(0.6428 -0.766 0.766 0.6428 -69.296 207.7129)" class="st1" width="1.22" height="4.66"/>
<rect x="189.45" y="173.42" transform="matrix(0.6157 -0.788 0.788 0.6157 -65.4436 217.3171)" class="st1" width="1.22" height="4.66"/>
<rect x="191.35" y="170.94" transform="matrix(0.5878 -0.809 0.809 0.5878 -61.0472 226.7263)" class="st1" width="1.22" height="4.66"/>
<rect x="193.17" y="168.4" transform="matrix(0.5592 -0.829 0.829 0.5592 -56.1183 235.9072)" class="st1" width="1.22" height="4.66"/>
<rect x="194.89" y="165.79" transform="matrix(0.5299 -0.848 0.848 0.5299 -50.6703 244.827)" class="st1" width="1.22" height="4.66"/>
<rect x="196.53" y="163.13" transform="matrix(0.5 -0.866 0.866 0.5 -44.7192 253.454)" class="st1" width="1.22" height="4.66"/>
<rect x="198.07" y="160.41" transform="matrix(0.4695 -0.8829 0.8829 0.4695 -38.2827 261.7574)" class="st1" width="1.22" height="4.66"/>
<rect x="199.51" y="157.63" transform="matrix(0.4384 -0.8988 0.8988 0.4384 -31.3805 269.7075)" class="st1" width="1.22" height="4.66"/>
<rect x="200.86" y="154.81" transform="matrix(0.4067 -0.9135 0.9135 0.4067 -24.0343 277.2762)" class="st1" width="1.22" height="4.66"/>
<rect x="202.1" y="151.95" transform="matrix(0.3746 -0.9272 0.9272 0.3746 -16.2676 284.4365)" class="st1" width="1.22" height="4.66"/>
<rect x="203.25" y="149.04" transform="matrix(0.342 -0.9397 0.9397 0.342 -8.1056 291.1632)" class="st1" width="1.22" height="4.66"/>
<rect x="204.29" y="146.09" transform="matrix(0.309 -0.9511 0.9511 0.309 0.4251 297.4326)" class="st1" width="1.22" height="4.66"/>
<rect x="205.23" y="143.11" transform="matrix(0.2756 -0.9613 0.9613 0.2756 9.296 303.223)" class="st1" width="1.22" height="4.66"/>
<rect x="206.07" y="140.1" transform="matrix(0.2419 -0.9703 0.9703 0.2419 18.4776 308.5143)" class="st1" width="1.22" height="4.66"/>
<rect x="206.8" y="137.06" transform="matrix(0.2079 -0.9781 0.9781 0.2079 27.939 313.2884)" class="st1" width="1.22" height="4.66"/>
<rect x="207.42" y="134" transform="matrix(0.1736 -0.9848 0.9848 0.1736 37.6483 317.5294)" class="st1" width="1.22" height="4.66"/>
<rect x="207.94" y="130.92" transform="matrix(0.1392 -0.9903 0.9903 0.1392 47.5725 321.2234)" class="st1" width="1.22" height="4.66"/>
<rect x="208.35" y="127.82" transform="matrix(0.1045 -0.9945 0.9945 0.1045 57.6779 324.3586)" class="st1" width="1.22" height="4.66"/>
<rect x="208.65" y="124.71" transform="matrix(0.0698 -0.9976 0.9976 0.0698 67.9302 326.9254)" class="st1" width="1.22" height="4.66"/>
<rect x="208.84" y="121.59" transform="matrix(0.0349 -0.9994 0.9994 0.0349 78.2942 328.9166)" class="st1" width="1.22" height="4.66"/>
<rect x="208.92" y="118.47" transform="matrix(1.457661e-10 -1 1 1.457661e-10 88.7348 330.3271)" class="st1" width="1.22" height="4.66"/>
<rect x="208.89" y="115.34" transform="matrix(-0.0349 -0.9994 0.9994 -0.0349 99.2164 331.1544)" class="st1" width="1.22" height="4.66"/>
<rect x="208.76" y="112.22" transform="matrix(-0.0698 -0.9976 0.9976 -0.0698 109.7034 331.3978)" class="st1" width="1.22" height="4.66"/>
<rect x="208.51" y="109.1" transform="matrix(-0.1045 -0.9945 0.9945 -0.1045 120.1603 331.0594)" class="st1" width="1.22" height="4.66"/>
<rect x="208.16" y="106" transform="matrix(-0.1392 -0.9903 0.9903 -0.1392 130.5518 330.1432)" class="st1" width="1.22" height="4.66"/>
<rect x="207.7" y="102.91" transform="matrix(-0.1736 -0.9848 0.9848 -0.1736 140.8431 328.6558)" class="st1" width="1.22" height="4.66"/>
<rect x="207.13" y="99.84" transform="matrix(-0.2079 -0.9781 0.9781 -0.2079 150.9999 326.6058)" class="st1" width="1.22" height="4.66"/>
<rect x="206.45" y="96.78" transform="matrix(-0.2419 -0.9703 0.9703 -0.2419 160.9885 324.0041)" class="st1" width="1.22" height="4.66"/>
<rect x="205.67" y="93.76" transform="matrix(-0.2756 -0.9613 0.9613 -0.2756 170.7762 320.8636)" class="st1" width="1.22" height="4.66"/>
<rect x="204.78" y="90.76" transform="matrix(-0.309 -0.9511 0.9511 -0.309 180.3312 317.1995)" class="st1" width="1.22" height="4.66"/>
<rect x="203.79" y="87.8" transform="matrix(-0.342 -0.9397 0.9397 -0.342 189.6227 313.0288)" class="st1" width="1.22" height="4.66"/>
<rect x="202.7" y="84.87" transform="matrix(-0.3746 -0.9272 0.9272 -0.3746 198.6214 308.3704)" class="st1" width="1.22" height="4.66"/>
<rect x="201.5" y="81.98" transform="matrix(-0.4067 -0.9135 0.9135 -0.4067 207.2991 303.2453)" class="st1" width="1.22" height="4.66"/>
<rect x="200.21" y="79.14" transform="matrix(-0.4384 -0.8988 0.8988 -0.4384 215.6294 297.6758)" class="st1" width="1.22" height="4.66"/>
<rect x="198.81" y="76.34" transform="matrix(-0.4695 -0.8829 0.8829 -0.4695 223.5872 291.6862)" class="st1" width="1.22" height="4.66"/>
<rect x="197.32" y="73.6" transform="matrix(-0.5 -0.866 0.866 -0.5 231.1492 285.3021)" class="st1" width="1.22" height="4.66"/>
<rect x="195.74" y="70.9" transform="matrix(-0.5299 -0.848 0.848 -0.5299 238.2939 278.5505)" class="st1" width="1.22" height="4.66"/>
<rect x="194.06" y="68.27" transform="matrix(-0.5592 -0.829 0.829 -0.5592 245.0018 271.4597)" class="st1" width="1.22" height="4.66"/>
<rect x="192.29" y="65.69" transform="matrix(-0.5878 -0.809 0.809 -0.5878 251.2552 264.0592)" class="st1" width="1.22" height="4.66"/>
<rect x="190.43" y="63.18" transform="matrix(-0.6157 -0.788 0.788 -0.6157 257.0385 256.3793)" class="st1" width="1.22" height="4.66"/>
<rect x="188.49" y="60.73" transform="matrix(-0.6428 -0.766 0.766 -0.6428 262.3382 248.4513)" class="st1" width="1.22" height="4.66"/>
<rect x="186.46" y="58.35" transform="matrix(-0.6691 -0.7431 0.7431 -0.6691 267.1428 240.3072)" class="st1" width="1.22" height="4.66"/>
<rect x="184.34" y="56.05" transform="matrix(-0.6947 -0.7193 0.7193 -0.6947 271.4431 231.9793)" class="st1" width="1.22" height="4.66"/>
<rect x="182.15" y="53.82" transform="matrix(-0.7193 -0.6947 0.6947 -0.7193 275.2322 223.5008)" class="st1" width="1.22" height="4.66"/>
<rect x="179.89" y="51.67" transform="matrix(-0.7431 -0.6691 0.6691 -0.7431 278.505 214.9046)" class="st1" width="1.22" height="4.66"/>
<rect x="177.55" y="49.6" transform="matrix(-0.766 -0.6428 0.6428 -0.766 281.2592 206.2241)" class="st1" width="1.22" height="4.66"/>
<rect x="175.14" y="47.61" transform="matrix(-0.788 -0.6157 0.6157 -0.788 283.4942 197.4925)" class="st1" width="1.22" height="4.66"/>
<rect x="172.66" y="45.71" transform="matrix(-0.809 -0.5878 0.5878 -0.809 285.212 188.7428)" class="st1" width="1.22" height="4.66"/>
<rect x="170.11" y="43.89" transform="matrix(-0.829 -0.5592 0.5592 -0.829 286.4164 180.0076)" class="st1" width="1.22" height="4.66"/>
<rect x="167.51" y="42.17" transform="matrix(-0.848 -0.5299 0.5299 -0.848 287.1138 171.3192)" class="st1" width="1.22" height="4.66"/>
<rect x="164.84" y="40.53" transform="matrix(-0.866 -0.5 0.5 -0.866 287.3123 162.7091)" class="st1" width="1.22" height="4.66"/>
<rect x="162.12" y="38.99" transform="matrix(-0.8829 -0.4695 0.4695 -0.8829 287.0221 154.2079)" class="st1" width="1.22" height="4.66"/>
<rect x="159.35" y="37.55" transform="matrix(-0.8988 -0.4384 0.4384 -0.8988 286.2557 145.8456)" class="st1" width="1.22" height="4.66"/>
<rect x="156.53" y="36.2" transform="matrix(-0.9135 -0.4067 0.4067 -0.9135 285.0272 137.6508)" class="st1" width="1.22" height="4.66"/>
<rect x="153.67" y="34.96" transform="matrix(-0.9272 -0.3746 0.3746 -0.9272 283.3525 129.6513)" class="st1" width="1.22" height="4.66"/>
<rect x="150.76" y="33.81" transform="matrix(-0.9397 -0.342 0.342 -0.9397 281.2496 121.8733)" class="st1" width="1.22" height="4.66"/>
<rect x="147.81" y="32.77" transform="matrix(-0.9511 -0.309 0.309 -0.9511 278.7377 114.3417)" class="st1" width="1.22" height="4.66"/>
<rect x="144.83" y="31.83" transform="matrix(-0.9613 -0.2756 0.2756 -0.9613 275.8377 107.08)" class="st1" width="1.22" height="4.66"/>
<rect x="141.82" y="30.99" transform="matrix(-0.9703 -0.2419 0.2419 -0.9703 272.5721 100.1098)" class="st1" width="1.22" height="4.66"/>
<rect x="138.78" y="30.26" transform="matrix(-0.9781 -0.2079 0.2079 -0.9781 268.9645 93.4513)" class="st1" width="1.22" height="4.66"/>
<rect x="135.72" y="29.64" transform="matrix(-0.9848 -0.1736 0.1736 -0.9848 265.0397 87.1229)" class="st1" width="1.22" height="4.66"/>
<rect x="132.64" y="29.12" transform="matrix(-0.9903 -0.1392 0.1392 -0.9903 260.8235 81.1408)" class="st1" width="1.22" height="4.66"/>
<rect x="129.54" y="28.71" transform="matrix(-0.9945 -0.1045 0.1045 -0.9945 256.3429 75.5198)" class="st1" width="1.22" height="4.66"/>
<rect x="126.43" y="28.41" transform="matrix(-0.9976 -0.0698 0.0698 -0.9976 251.6252 70.2722)" class="st1" width="1.22" height="4.66"/>
<rect x="123.31" y="28.22" transform="matrix(-0.9994 -0.0349 0.0349 -0.9994 246.6988 65.4088)" class="st1" width="1.22" height="4.66"/>
<rect x="120.18" y="28.14" transform="matrix(-1 -1.889001e-10 1.889001e-10 -1 241.5924 60.938)" class="st1" width="1.22" height="4.66"/>
<rect x="117.06" y="28.17" transform="matrix(-0.9994 0.0349 -0.0349 -0.9994 236.3348 56.8663)" class="st1" width="1.22" height="4.66"/>
<rect x="113.94" y="28.3" transform="matrix(-0.9976 0.0698 -0.0698 -0.9976 230.9555 53.198)" class="st1" width="1.22" height="4.66"/>
<rect x="110.82" y="28.55" transform="matrix(-0.9945 0.1045 -0.1045 -0.9945 225.4836 49.9354)" class="st1" width="1.22" height="4.66"/>
<rect x="104.87" y="28.75" transform="matrix(0.9848 -0.1736 0.1736 0.9848 -4.4865 18.8802)" class="st1" width="1.58" height="12.67"/>
<rect x="90.13" y="32.31" transform="matrix(0.9397 -0.342 0.342 0.9397 -7.7342 33.4262)" class="st1" width="1.58" height="12.67"/>
<rect x="76.23" y="38.38" transform="matrix(0.866 -0.5 0.5 0.866 -12.0382 44.5007)" class="st1" width="1.58" height="12.67"/>
<rect x="63.6" y="46.77" transform="matrix(0.766 -0.6428 0.6428 0.766 -19.0709 53.812)" class="st1" width="1.58" height="12.67"/>
<rect x="52.61" y="57.23" transform="matrix(0.6428 -0.766 0.766 0.6428 -29.6136 63.6154)" class="st1" width="1.58" height="12.67"/>
<rect x="43.61" y="69.43" transform="matrix(0.5 -0.866 0.866 0.5 -43.413 76.3383)" class="st1" width="1.58" height="12.67"/>
<rect x="36.87" y="83.01" transform="matrix(0.342 -0.9397 0.9397 0.342 -59.1804 94.1782)" class="st1" width="1.58" height="12.67"/>
<rect x="32.58" y="97.56" transform="matrix(0.1736 -0.9848 0.9848 0.1736 -74.7364 118.7238)" class="st1" width="1.58" height="12.67"/>
<rect x="31.84" y="127.77" transform="matrix(-0.1736 -0.9848 0.9848 -0.1736 -93.7617 189.5256)" class="st1" width="1.58" height="12.67"/>
<rect x="35.41" y="142.51" transform="matrix(-0.342 -0.9397 0.9397 -0.342 -91.285 233.7626)" class="st1" width="1.58" height="12.67"/>
<rect x="41.48" y="156.4" transform="matrix(-0.5 -0.866 0.866 -0.5 -77.5328 280.7118)" class="st1" width="1.58" height="12.67"/>
<rect x="49.87" y="169.03" transform="matrix(-0.6428 -0.766 0.766 -0.6428 -51.1197 326.902)" class="st1" width="1.58" height="12.67"/>
<rect x="60.32" y="180.02" transform="matrix(-0.766 -0.6428 0.6428 -0.766 -11.8533 368.3916)" class="st1" width="1.58" height="12.67"/>
<rect x="72.53" y="189.02" transform="matrix(-0.866 -0.5 0.5 -0.866 39.1403 401.1946)" class="st1" width="1.58" height="12.67"/>
<rect x="86.11" y="195.76" transform="matrix(-0.9397 -0.342 0.342 -0.9397 99.4425 421.7303)" class="st1" width="1.58" height="12.67"/>
<rect x="100.66" y="200.05" transform="matrix(-0.9848 -0.1736 0.1736 -0.9848 165.5203 427.244)" class="st1" width="1.58" height="12.67"/>
<rect x="130.86" y="200.79" transform="matrix(-0.9848 0.1736 -0.1736 -0.9848 297.2758 388.2384)" class="st1" width="1.58" height="12.67"/>
<rect x="145.6" y="197.22" transform="matrix(-0.9397 0.342 -0.342 -0.9397 353.582 344.7726)" class="st1" width="1.58" height="12.67"/>
<rect x="159.5" y="191.16" transform="matrix(-0.866 0.5 -0.5 -0.866 397.8535 288.3752)" class="st1" width="1.58" height="12.67"/>
<rect x="172.13" y="182.76" transform="matrix(-0.766 0.6428 -0.6428 -0.766 426.942 222.8046)" class="st1" width="1.58" height="12.67"/>
<rect x="183.11" y="172.31" transform="matrix(-0.6428 0.766 -0.766 -0.6428 438.9686 152.5912)" class="st1" width="1.58" height="12.67"/>
<rect x="192.12" y="160.1" transform="matrix(-0.5 0.866 -0.866 -0.5 433.5009 82.594)" class="st1" width="1.58" height="12.67"/>
<rect x="198.86" y="146.52" transform="matrix(-0.342 0.9397 -0.9397 -0.342 411.5743 17.5236)" class="st1" width="1.58" height="12.67"/>
<rect x="203.14" y="131.97" transform="matrix(-0.1736 0.9848 -0.9848 -0.1736 375.5557 -38.512)" class="st1" width="1.58" height="12.67"/>
<rect x="203.89" y="101.77" transform="matrix(0.1736 0.9848 -0.9848 0.1736 275.5966 -112.2366)" class="st1" width="1.58" height="12.67"/>
<rect x="200.32" y="87.03" transform="matrix(0.342 0.9397 -0.9397 0.342 220.0614 -127.5536)" class="st1" width="1.58" height="12.67"/>
<rect x="194.25" y="73.13" transform="matrix(0.5 0.866 -0.866 0.5 166.3417 -129.18)" class="st1" width="1.58" height="12.67"/>
<rect x="185.86" y="60.5" transform="matrix(0.6428 0.766 -0.766 0.6428 117.8728 -119.1109)" class="st1" width="1.58" height="12.67"/>
<rect x="175.4" y="49.52" transform="matrix(0.766 0.6428 -0.6428 0.766 77.1225 -100.1906)" class="st1" width="1.58" height="12.67"/>
<rect x="163.2" y="40.52" transform="matrix(0.866 0.5 -0.5 0.866 45.3959 -75.7193)" class="st1" width="1.58" height="12.67"/>
<rect x="149.62" y="33.77" transform="matrix(0.9397 0.342 -0.342 0.9397 22.7878 -49.0245)" class="st1" width="1.58" height="12.67"/>
<rect x="135.07" y="29.49" transform="matrix(0.9848 0.1736 -0.1736 0.9848 8.2846 -23.048)" class="st1" width="1.58" height="12.67"/>
<text transform="matrix(1.0165 0 0 1 116.9287 57.7578)" class="st2 st3 st4">N</text>
<text transform="matrix(1.0165 0 0 1 49.9637 123.3378)" class="st2 st3 st4">W</text>
<text transform="matrix(1.0165 0 0 1 113.9506 190.9678)" class="st2 st3 st4">S</text>
<text transform="matrix(1.0165 0 0 1 183.8745 124.7136)" class="st2 st3 st4">E</text>
<text transform="matrix(1.0165 0 0 1 77.8408 61.1019)" class="st2 st3 st4">33</text>
<text transform="matrix(1.0208 0 0 1 180.0683 89.1651)" class="st5 st3 st4">6</text>
<rect x="161.23" y="95.73" class="st6" width="2.14" height="0.23"/>
<text transform="matrix(1.0165 0 0 1 153.0544 61.6968)" class="st2 st3 st4">3</text>
<text transform="matrix(1.0208 0 0 1 173.2783 160.7004)" class="st5 st3 st4">12</text>
<text transform="matrix(1.0208 0 0 1 148.9842 187.2014)" class="st5 st3 st4">15</text>
<text transform="matrix(1.0288 0 0 1 75.727 186.0753)" class="st5 st3 st4">21</text>
<text transform="matrix(1.0208 0 0 1 53.8725 84.0898)" class="st5 st3 st4">3</text>
<text transform="matrix(1.0208 0 0 1 50.2169 157.3307)" class="st5 st3 st4">24</text>
</svg>
