<?xml version="1.0" encoding="utf-8"?>
<!-- Generator: Adobe Illustrator 24.3.0, SVG Export Plug-In . SVG Version: 6.00 Build 0)  -->
<svg version="1.1" id="Layer_1" xmlns="http://www.w3.org/2000/svg" xmlns:xlink="http://www.w3.org/1999/xlink" x="0px" y="0px"
	 viewBox="0 0 240 240" style="enable-background:new 0 0 240 240;" xml:space="preserve">
<style type="text/css">
	.st0{fill:#010202;stroke:#000000;stroke-miterlimit:10;}
	.st1{fill-rule:evenodd;clip-rule:evenodd;fill:#FFFFFF;}
	.st2{fill:none;}
	.st3{fill:#FAFAFA;}
	.st4{font-family:'MyriadPro-Regular';}
	.st5{font-size:12px;}
	.st6{fill:none;stroke:#FFFFFF;stroke-width:0.25;stroke-miterlimit:10;}
	.st7{fill:#F8EA3D;}
	.st8{fill:#88BF52;}
	.st9{fill:#10100E;}
	.st10{fill:#FFFFFF;stroke:#000000;stroke-width:0.25;stroke-miterlimit:10;}
	.st11{font-family:'BritannicBold';}
	.st12{font-size:41px;}
</style>
<circle class="st0" cx="118.46" cy="120" r="96"/>
<path class="st1" d="M132.34,56.69l2.02,0.33l-1.96,10.32c-0.67-0.12-1.34-0.23-2.02-0.33L132.34,56.69L132.34,56.69z M163.79,66.4
	l-3.76-2.01l-8.7,13.98l3.76,2.02L163.79,66.4L163.79,66.4z M104.57,56.69l-2.02,0.33l1.96,10.32c0.67-0.12,1.35-0.23,2.02-0.33
	L104.57,56.69L104.57,56.69z M90.09,60.13l-1.93,0.65l3.86,9.84c0.64-0.23,1.28-0.44,1.93-0.65L90.09,60.13L90.09,60.13z
	 M174.39,74.89l-1.59-1.23l-7.27,8.05c0.53,0.4,1.06,0.82,1.58,1.23L174.39,74.89L174.39,74.89z M184.83,84.83l-1.33-1.47
	l-8.66,6.76c0.45,0.48,0.89,0.97,1.33,1.47L184.83,84.83L184.83,84.83z M115.15,53.53h6.62v18.26h-6.62V53.53L115.15,53.53z
	 M193.06,91.75l3.31,5.33l-17.03,9.13l-3.31-5.32L193.06,91.75L193.06,91.75z M43.86,91.75l-3.31,5.33l17.03,9.13l3.31-5.32
	L43.86,91.75L43.86,91.75z M76.88,64.39l-3.76,2.02l8.69,13.99l3.76-2.02L76.88,64.39L76.88,64.39z M146.83,60.13l1.93,0.65
	l-3.86,9.85c-0.64-0.23-1.28-0.44-1.93-0.66L146.83,60.13L146.83,60.13z M62.53,74.89l1.59-1.23l7.27,8.05
	c-0.53,0.4-1.06,0.82-1.59,1.23L62.53,74.89L62.53,74.89z M52.09,84.83l1.33-1.47l8.67,6.76c-0.45,0.49-0.89,0.98-1.33,1.47
	L52.09,84.83z"/>
<rect x="60.9" y="104.44" class="st2" width="14.04" height="14.62"/>
<text transform="matrix(1 0 0 1 60.8958 112.9641)" class="st3 st4 st5">0</text>
<rect x="85.58" y="87.47" class="st2" width="14.04" height="14.62"/>
<text transform="matrix(1 0 0 1 85.5767 95.9871)" class="st3 st4 st5">1</text>
<rect x="143.85" y="87.16" class="st2" width="14.04" height="14.62"/>
<text transform="matrix(1 0 0 1 143.8485 95.6763)" class="st3 st4 st5">2</text>
<rect x="169.01" y="103.82" class="st2" width="14.04" height="14.62"/>
<text transform="matrix(1 0 0 1 169.0058 112.342)" class="st3 st4 st5">3</text>
<rect x="91.9" y="33.83" class="st2" width="53.11" height="17.25"/>
<text transform="matrix(1 0 0 1 103.1058 42.3499)" class="st3 st4 st5"> × 100 </text>
<g>
	<g>
		<g>
			<path id="rect4455-3-2-2-1-6-8-6-1-8-9-2-7-9-5_5_" class="st6" d="M88.05,89.96"/>
			<path id="rect4455-3-2-2-1-6-8-6-1-8-9-2-7-9-5_2_" class="st6" d="M83.55,83.37"/>
		</g>
		<path class="st7" d="M118.17,72.39c-2.66,0-5.29,0.18-7.86,0.53c-3.08,0.42-6.09,1.07-8.99,1.95c-2.97,0.89-5.84,2.02-8.58,3.35
			c-3.18,1.53-6.19,3.35-9.01,5.43c-1.63,1.19-3.2,2.46-4.7,3.83l2.02,2.16c0.85-0.72,1.73-1.4,2.62-2.05
			c2.82-2.07,5.83-3.89,9.01-5.42c2.74-1.34,5.61-2.47,8.58-3.35c2.9-0.88,5.91-1.53,8.99-1.95c2.57-0.35,5.2-0.53,7.86-0.53
			c1.32,0,2.62,0.04,3.92,0.13l0.67-3.91C121.21,72.45,119.7,72.39,118.17,72.39z"/>
		<path class="st8" d="M122.7,72.56l-0.67,3.91c2.22,0.15,4.41,0.42,6.55,0.81c3.05,0.55,6,1.34,8.86,2.34
			c2.01,0.71,3.98,1.52,5.89,2.43l1.35-3.3c-2.3-1.18-4.7-2.21-7.18-3.07c-2.85-1.01-5.81-1.79-8.85-2.35
			C126.7,72.97,124.71,72.72,122.7,72.56z"/>
		<path class="st7" d="M144.68,78.75l-1.35,3.3c0.44,0.21,0.86,0.42,1.29,0.64c2.72,1.39,5.31,2.99,7.75,4.76
			c1.2,0.87,2.36,1.78,3.48,2.73l2.03-2.18c-1.72-1.61-3.54-3.11-5.44-4.5C149.99,81.73,147.4,80.13,144.68,78.75z"/>
	</g>
</g>
<circle class="st9" cx="120" cy="177.07" r="34.72"/>
<text transform="matrix(1 0 0 1 93.728 192.1059)" class="st10 st11 st12">°C</text>
</svg>
