<?xml version="1.0" encoding="utf-8"?>
<!-- Generator: Adobe Illustrator 24.3.0, SVG Export Plug-In . SVG Version: 6.00 Build 0)  -->
<svg version="1.1" id="Layer_1" xmlns="http://www.w3.org/2000/svg" xmlns:xlink="http://www.w3.org/1999/xlink" x="0px" y="0px"
	 viewBox="0 0 240 240" style="enable-background:new 0 0 240 240;" xml:space="preserve">
<style type="text/css">
	.st0{fill:#FFF8F8;stroke:#FFFFFF;stroke-width:2;}
</style>
<path id="path6571-0" class="st0" d="M118.6,166.9l-22,7.7v-7l18.8-16.5l-2.5-12.5c0,0-0.5-2.1-0.6-3.2c-0.1-0.7,0-2.2,0-2.2V125
	l-39.9,14.4l-1.5-5.7c0,0-0.1-2.1,0.6-3.3c0.7-1.1,3.1-3.1,3.1-3.1L112.3,98V82.1c0,0,0-3,0.4-4.4c0.2-0.8,1-3.5,1-3.5
	s3.7-9.7,6.4-9.7c2.7,0,6.4,9.7,6.4,9.7s0.8,2.6,1,3.5c0.4,1.4,0.4,4.4,0.4,4.4v15.8l37.7,29.3c0,0,2.5,2,3.1,3.1
	c0.7,1.2,0.6,3.3,0.6,3.3l-1.5,5.7L128,125v8.3c0,0,0.1,1.5,0,2.2c-0.1,1.1-0.6,3.2-0.6,3.2l-2.5,12.5l18.8,16.5v7l-22-7.7
	c0,0-0.7,7.8-1.6,7.8C119.3,174.7,118.6,166.9,118.6,166.9L118.6,166.9z"/>
</svg>
